<svg xmlns="http://www.w3.org/2000/svg" width="24" height="24" viewBox="0 0 24 24"><g transform="translate(2 4)"><g transform="translate(-884 -1486)"><g transform="translate(100 1428)"><g transform="translate(782 54)"><path d="M0,0H24V24H0Z" fill="none" fill-rule="evenodd"/><path d="M20,6H4l8,4.99ZM4,8V18H20V8l-8,5Z" fill="rgba(137,141,248,0.21)" fill-rule="evenodd"/><path d="M20,4H4A2.006,2.006,0,0,0,2,6V18a2.006,2.006,0,0,0,2,2H20a2.006,2.006,0,0,0,2-2V6A2.006,2.006,0,0,0,20,4Zm0,2-8,4.99L4,6Zm0,12H4V8l8,5,8-5Z" fill="#898df8" fill-rule="evenodd"/></g></g></g></g></svg>