<svg width="14" height="14" viewBox="0 0 14 14" fill="none" xmlns="http://www.w3.org/2000/svg">
<path d="M10.4998 6.31166C10.3451 6.31166 10.1968 6.37311 10.0874 6.48251C9.97796 6.59191 9.9165 6.74028 9.9165 6.89499V11.0833C9.9165 11.238 9.85505 11.3864 9.74565 11.4958C9.63625 11.6052 9.48788 11.6667 9.33317 11.6667H2.9165C2.76179 11.6667 2.61342 11.6052 2.50403 11.4958C2.39463 11.3864 2.33317 11.238 2.33317 11.0833V4.66666C2.33317 4.51195 2.39463 4.36357 2.50403 4.25418C2.61342 4.14478 2.76179 4.08332 2.9165 4.08332H7.10484C7.25955 4.08332 7.40792 4.02186 7.51732 3.91247C7.62671 3.80307 7.68817 3.6547 7.68817 3.49999C7.68817 3.34528 7.62671 3.19691 7.51732 3.08751C7.40792 2.97811 7.25955 2.91666 7.10484 2.91666H2.9165C2.45238 2.91666 2.00726 3.10103 1.67907 3.42922C1.35088 3.75741 1.1665 4.20253 1.1665 4.66666V11.0833C1.1665 11.5475 1.35088 11.9926 1.67907 12.3208C2.00726 12.6489 2.45238 12.8333 2.9165 12.8333H9.33317C9.7973 12.8333 10.2424 12.6489 10.5706 12.3208C10.8988 11.9926 11.0832 11.5475 11.0832 11.0833V6.89499C11.0832 6.74028 11.0217 6.59191 10.9123 6.48251C10.8029 6.37311 10.6545 6.31166 10.4998 6.31166ZM12.7865 1.52832C12.7273 1.38579 12.614 1.27252 12.4715 1.21332C12.4014 1.18343 12.3261 1.16758 12.2498 1.16666H8.74984C8.59513 1.16666 8.44675 1.22811 8.33736 1.33751C8.22796 1.44691 8.1665 1.59528 8.1665 1.74999C8.1665 1.9047 8.22796 2.05307 8.33736 2.16247C8.44675 2.27186 8.59513 2.33332 8.74984 2.33332H10.844L4.83567 8.33582C4.781 8.39005 4.7376 8.45457 4.70798 8.52565C4.67837 8.59674 4.66312 8.67298 4.66312 8.74999C4.66312 8.827 4.67837 8.90324 4.70798 8.97433C4.7376 9.04541 4.781 9.10993 4.83567 9.16416C4.8899 9.21883 4.95442 9.26223 5.0255 9.29184C5.09659 9.32146 5.17283 9.3367 5.24984 9.3367C5.32684 9.3367 5.40309 9.32146 5.47417 9.29184C5.54526 9.26223 5.60978 9.21883 5.664 9.16416L11.6665 3.15582V5.24999C11.6665 5.4047 11.728 5.55307 11.8374 5.66247C11.9468 5.77186 12.0951 5.83332 12.2498 5.83332C12.4045 5.83332 12.5529 5.77186 12.6623 5.66247C12.7717 5.55307 12.8332 5.4047 12.8332 5.24999V1.74999C12.8322 1.67376 12.8164 1.59845 12.7865 1.52832Z" fill="white"/>
</svg>
