<svg width="18" height="16" viewBox="0 0 18 16" fill="none" xmlns="http://www.w3.org/2000/svg">
<path d="M16.5135 1.4879C15.5582 0.537771 14.2644 0.00424909 12.9156 0.00424909C11.5668 0.00424909 10.273 0.537771 9.31769 1.4879C9.20788 1.59747 9.10261 1.71279 9.0019 1.83386C8.90088 1.71218 8.79623 1.59686 8.68611 1.48699C7.73189 0.534886 6.43768 0 5.08821 0C3.73873 0 2.44453 0.534886 1.4903 1.48699C0.536077 2.43909 0 3.73043 0 5.0769C0 6.42338 0.536077 7.71471 1.4903 8.66682L8.72524 15.8857C8.79863 15.9589 8.89814 16 9.0019 16C9.10566 16 9.20517 15.9589 9.27856 15.8857L16.5135 8.66682C17.4655 7.7137 18 6.42296 18 5.07736C18 3.73176 17.4655 2.44101 16.5135 1.4879V1.4879Z" fill="#E86C60"/>
</svg>
