<svg width="20" height="20" viewBox="0 0 20 20" fill="none" xmlns="http://www.w3.org/2000/svg">
<path d="M18.8889 8.88889C18.5942 8.88889 18.3116 9.00595 18.1032 9.21433C17.8948 9.4227 17.7778 9.70532 17.7778 10V16.6667C17.7778 16.9614 17.6607 17.244 17.4523 17.4523C17.244 17.6607 16.9614 17.7778 16.6667 17.7778H3.33333C3.03865 17.7778 2.75603 17.6607 2.54766 17.4523C2.33929 17.244 2.22222 16.9614 2.22222 16.6667V3.33333C2.22222 3.03865 2.33929 2.75603 2.54766 2.54766C2.75603 2.33929 3.03865 2.22222 3.33333 2.22222H10C10.2947 2.22222 10.5773 2.10516 10.7857 1.89679C10.994 1.68841 11.1111 1.4058 11.1111 1.11111C11.1111 0.816426 10.994 0.533811 10.7857 0.325437C10.5773 0.117063 10.2947 0 10 0H3.33333C2.44928 0 1.60143 0.35119 0.976311 0.976311C0.35119 1.60143 0 2.44928 0 3.33333V16.6667C0 17.5507 0.35119 18.3986 0.976311 19.0237C1.60143 19.6488 2.44928 20 3.33333 20H16.6667C17.5507 20 18.3986 19.6488 19.0237 19.0237C19.6488 18.3986 20 17.5507 20 16.6667V10C20 9.70532 19.8829 9.4227 19.6746 9.21433C19.4662 9.00595 19.1836 8.88889 18.8889 8.88889Z" fill="#F6BE56"/>
<path d="M14.4448 2.22222H16.2004L9.21148 9.2C9.10733 9.30329 9.02467 9.42618 8.96826 9.56158C8.91186 9.69698 8.88281 9.84221 8.88281 9.98889C8.88281 10.1356 8.91186 10.2808 8.96826 10.4162C9.02467 10.5516 9.10733 10.6745 9.21148 10.7778C9.31477 10.8819 9.43766 10.9646 9.57306 11.021C9.70846 11.0774 9.85369 11.1064 10.0004 11.1064C10.147 11.1064 10.2923 11.0774 10.4277 11.021C10.5631 10.9646 10.686 10.8819 10.7893 10.7778L17.7781 3.8V5.55556C17.7781 5.85024 17.8952 6.13286 18.1036 6.34123C18.312 6.5496 18.5946 6.66667 18.8893 6.66667C19.1839 6.66667 19.4666 6.5496 19.6749 6.34123C19.8833 6.13286 20.0004 5.85024 20.0004 5.55556V1.11111C20.0004 0.816426 19.8833 0.533811 19.6749 0.325437C19.4666 0.117063 19.1839 0 18.8893 0H14.4448C14.1501 0 13.8675 0.117063 13.6591 0.325437C13.4508 0.533811 13.3337 0.816426 13.3337 1.11111C13.3337 1.4058 13.4508 1.68841 13.6591 1.89679C13.8675 2.10516 14.1501 2.22222 14.4448 2.22222Z" fill="#F6BE56"/>
</svg>
