<svg width="1440" height="1788" viewBox="0 0 1440 1788" fill="none" xmlns="http://www.w3.org/2000/svg">
<rect width="1440" height="1788" fill="#EDEDED"/>
<g filter="url(#filter0_d)">
<rect width="315" height="682" transform="translate(96 109)" fill="white"/>
<path d="M377.394 209.788H129.606C125.427 209.788 122.04 214.917 122.04 221.243V436.025C122.04 442.352 125.427 447.48 129.606 447.48H377.394C381.573 447.48 384.96 442.352 384.96 436.025V221.243C384.96 214.917 381.573 209.788 377.394 209.788Z" fill="#AAB0BB"/>
<path d="M341.28 388.439V267.15C341.266 262.557 339.215 258.157 335.577 254.91C331.939 251.663 327.009 249.833 321.864 249.82H185.976C180.831 249.833 175.901 251.663 172.263 254.91C168.625 258.157 166.574 262.557 166.56 267.15V388.439C166.574 393.031 168.625 397.432 172.263 400.679C175.901 403.926 180.831 405.756 185.976 405.769H321.864C327.009 405.756 331.939 403.926 335.577 400.679C339.215 397.432 341.266 393.031 341.28 388.439ZM219.948 340.792L244.212 366.869L278.184 327.794L321.864 379.779H185.976L219.948 340.792Z" fill="white"/>
<rect x="120.86" y="484.936" width="263.6" height="35.9556" rx="3.5" fill="white" stroke="#E2E6EB"/>
<rect x="120.86" y="538.69" width="263.6" height="35.9557" rx="3.5" fill="white" stroke="#E2E6EB"/>
<rect x="120.36" y="602.862" width="264.6" height="41.9951" rx="6" fill="#C4C4C4"/>
<path d="M135.12 509.515V498.14H138.839C140.073 498.14 141.001 498.395 141.62 498.905C142.245 499.416 142.558 500.171 142.558 501.171C142.558 501.702 142.407 502.174 142.105 502.585C141.803 502.991 141.391 503.306 140.87 503.53C141.485 503.702 141.969 504.03 142.323 504.515C142.683 504.994 142.863 505.567 142.863 506.233C142.863 507.254 142.532 508.056 141.87 508.64C141.209 509.223 140.274 509.515 139.066 509.515H135.12ZM136.62 504.194V508.288H139.097C139.795 508.288 140.344 508.108 140.745 507.749C141.152 507.384 141.355 506.884 141.355 506.249C141.355 504.879 140.61 504.194 139.12 504.194H136.62ZM136.62 502.991H138.886C139.542 502.991 140.066 502.827 140.456 502.499C140.852 502.171 141.05 501.726 141.05 501.163C141.05 500.538 140.868 500.085 140.503 499.804C140.139 499.517 139.584 499.374 138.839 499.374H136.62V502.991ZM144.48 505.21C144.48 504.382 144.641 503.637 144.964 502.976C145.292 502.314 145.745 501.804 146.323 501.444C146.907 501.085 147.571 500.905 148.316 500.905C149.467 500.905 150.396 501.304 151.105 502.101C151.818 502.897 152.175 503.957 152.175 505.28V505.382C152.175 506.205 152.016 506.944 151.698 507.601C151.386 508.252 150.935 508.759 150.347 509.124C149.764 509.489 149.092 509.671 148.331 509.671C147.185 509.671 146.256 509.272 145.542 508.476C144.834 507.679 144.48 506.624 144.48 505.312V505.21ZM145.933 505.382C145.933 506.319 146.149 507.072 146.581 507.64C147.019 508.207 147.602 508.491 148.331 508.491C149.066 508.491 149.649 508.205 150.081 507.632C150.514 507.054 150.73 506.246 150.73 505.21C150.73 504.283 150.508 503.533 150.066 502.96C149.628 502.382 149.045 502.093 148.316 502.093C147.602 502.093 147.027 502.377 146.589 502.944C146.152 503.512 145.933 504.325 145.933 505.382ZM153.605 505.21C153.605 504.382 153.766 503.637 154.089 502.976C154.417 502.314 154.87 501.804 155.448 501.444C156.032 501.085 156.696 500.905 157.441 500.905C158.592 500.905 159.521 501.304 160.23 502.101C160.943 502.897 161.3 503.957 161.3 505.28V505.382C161.3 506.205 161.141 506.944 160.823 507.601C160.511 508.252 160.06 508.759 159.472 509.124C158.889 509.489 158.217 509.671 157.456 509.671C156.31 509.671 155.381 509.272 154.667 508.476C153.959 507.679 153.605 506.624 153.605 505.312V505.21ZM155.058 505.382C155.058 506.319 155.274 507.072 155.706 507.64C156.144 508.207 156.727 508.491 157.456 508.491C158.191 508.491 158.774 508.205 159.206 507.632C159.639 507.054 159.855 506.246 159.855 505.21C159.855 504.283 159.633 503.533 159.191 502.96C158.753 502.382 158.17 502.093 157.441 502.093C156.727 502.093 156.152 502.377 155.714 502.944C155.277 503.512 155.058 504.325 155.058 505.382ZM165.472 505.601L164.566 506.546V509.515H163.12V497.515H164.566V504.772L165.339 503.843L167.972 501.062H169.73L166.441 504.593L170.113 509.515H168.417L165.472 505.601ZM172.792 509.515H171.347V501.062H172.792V509.515ZM171.23 498.819C171.23 498.585 171.3 498.387 171.441 498.226C171.587 498.064 171.8 497.983 172.081 497.983C172.363 497.983 172.576 498.064 172.722 498.226C172.868 498.387 172.941 498.585 172.941 498.819C172.941 499.054 172.868 499.249 172.722 499.405C172.576 499.562 172.363 499.64 172.081 499.64C171.8 499.64 171.587 499.562 171.441 499.405C171.3 499.249 171.23 499.054 171.23 498.819ZM176.48 501.062L176.527 502.124C177.172 501.312 178.016 500.905 179.058 500.905C180.844 500.905 181.745 501.913 181.761 503.929V509.515H180.316V503.921C180.31 503.312 180.17 502.861 179.894 502.569C179.623 502.278 179.198 502.132 178.62 502.132C178.152 502.132 177.74 502.257 177.386 502.507C177.032 502.757 176.756 503.085 176.558 503.491V509.515H175.113V501.062H176.48ZM183.597 505.218C183.597 503.9 183.902 502.853 184.511 502.077C185.12 501.296 185.928 500.905 186.933 500.905C187.964 500.905 188.769 501.27 189.347 501.999L189.417 501.062H190.738V509.312C190.738 510.405 190.412 511.267 189.761 511.897C189.115 512.528 188.245 512.843 187.152 512.843C186.542 512.843 185.946 512.713 185.363 512.452C184.779 512.192 184.334 511.835 184.027 511.382L184.777 510.515C185.396 511.28 186.154 511.663 187.05 511.663C187.753 511.663 188.3 511.465 188.691 511.069C189.087 510.674 189.284 510.116 189.284 509.397V508.671C188.706 509.338 187.917 509.671 186.917 509.671C185.928 509.671 185.126 509.272 184.511 508.476C183.902 507.679 183.597 506.593 183.597 505.218ZM185.05 505.382C185.05 506.335 185.245 507.085 185.636 507.632C186.027 508.174 186.573 508.444 187.277 508.444C188.188 508.444 188.857 508.03 189.284 507.202V503.343C188.842 502.535 188.178 502.132 187.292 502.132C186.589 502.132 186.04 502.405 185.644 502.952C185.248 503.499 185.05 504.309 185.05 505.382ZM198.73 509.515H197.23V498.14H198.73V509.515ZM201.48 509.515V498.14H204.691C205.68 498.14 206.555 498.358 207.316 498.796C208.076 499.233 208.662 499.856 209.073 500.663C209.49 501.47 209.701 502.397 209.706 503.444V504.171C209.706 505.244 209.498 506.184 209.081 506.991C208.67 507.799 208.079 508.418 207.308 508.851C206.542 509.283 205.649 509.504 204.628 509.515H201.48ZM202.98 499.374V508.288H204.558C205.714 508.288 206.613 507.929 207.253 507.21C207.899 506.491 208.222 505.468 208.222 504.14V503.476C208.222 502.184 207.917 501.181 207.308 500.468C206.704 499.749 205.844 499.384 204.73 499.374H202.98Z" fill="#585858"/>
<path d="M141.402 560.3H136.636L135.566 563.269H134.019L138.363 551.894H139.675L144.027 563.269H142.488L141.402 560.3ZM137.089 559.065H140.956L139.019 553.745L137.089 559.065ZM146.902 563.269H145.456V554.815H146.902V563.269ZM145.339 552.573C145.339 552.339 145.409 552.141 145.55 551.979C145.696 551.818 145.909 551.737 146.191 551.737C146.472 551.737 146.685 551.818 146.831 551.979C146.977 552.141 147.05 552.339 147.05 552.573C147.05 552.808 146.977 553.003 146.831 553.159C146.685 553.315 146.472 553.394 146.191 553.394C145.909 553.394 145.696 553.315 145.55 553.159C145.409 553.003 145.339 552.808 145.339 552.573ZM153.308 556.112C153.089 556.076 152.852 556.058 152.597 556.058C151.649 556.058 151.006 556.461 150.667 557.269V563.269H149.222V554.815H150.628L150.652 555.792C151.126 555.037 151.797 554.659 152.667 554.659C152.948 554.659 153.162 554.696 153.308 554.769V556.112ZM156.214 563.269H154.769V551.269H156.214V563.269ZM160.105 563.269H158.659V554.815H160.105V563.269ZM158.542 552.573C158.542 552.339 158.613 552.141 158.753 551.979C158.899 551.818 159.113 551.737 159.394 551.737C159.675 551.737 159.889 551.818 160.034 551.979C160.18 552.141 160.253 552.339 160.253 552.573C160.253 552.808 160.18 553.003 160.034 553.159C159.889 553.315 159.675 553.394 159.394 553.394C159.113 553.394 158.899 553.315 158.753 553.159C158.613 553.003 158.542 552.808 158.542 552.573ZM163.792 554.815L163.839 555.878C164.485 555.065 165.329 554.659 166.37 554.659C168.157 554.659 169.058 555.667 169.073 557.683V563.269H167.628V557.675C167.623 557.065 167.482 556.615 167.206 556.323C166.935 556.032 166.511 555.886 165.933 555.886C165.464 555.886 165.053 556.011 164.698 556.261C164.344 556.511 164.068 556.839 163.87 557.245V563.269H162.425V554.815H163.792ZM174.761 563.425C173.615 563.425 172.683 563.05 171.964 562.3C171.245 561.545 170.886 560.537 170.886 559.276V559.011C170.886 558.172 171.045 557.425 171.363 556.769C171.685 556.107 172.133 555.591 172.706 555.222C173.284 554.847 173.909 554.659 174.581 554.659C175.68 554.659 176.534 555.021 177.144 555.745C177.753 556.469 178.058 557.506 178.058 558.854V559.456H172.331C172.352 560.289 172.594 560.964 173.058 561.479C173.527 561.99 174.12 562.245 174.839 562.245C175.35 562.245 175.782 562.141 176.136 561.933C176.49 561.724 176.8 561.448 177.066 561.104L177.948 561.792C177.24 562.881 176.178 563.425 174.761 563.425ZM174.581 555.847C173.998 555.847 173.508 556.06 173.113 556.487C172.717 556.909 172.472 557.503 172.378 558.269H176.613V558.159C176.571 557.425 176.373 556.857 176.019 556.456C175.665 556.05 175.185 555.847 174.581 555.847Z" fill="#585858"/>
<path fill-rule="evenodd" clip-rule="evenodd" d="M359.016 552.964L357.832 554.148L362.872 559.187L367.912 554.148L366.728 552.964L362.872 556.81L359.016 552.964Z" fill="#979797"/>
<rect x="96" y="135.037" width="315" height="40.3153" fill="white"/>
<rect x="128" y="142" width="230" height="28" rx="6" fill="#C4C4C4"/>
</g>
<g filter="url(#filter1_d)">
<rect width="315" height="682" transform="translate(1028 109)" fill="#F4F4F4"/>
<rect x="1028" y="715.409" width="315" height="75.5911" fill="#414E60"/>
<rect x="1028" y="135.037" width="315" height="40.3153" fill="#F4F4F4"/>
<rect x="1147.24" y="676.734" width="77.36" height="77.3498" rx="38.6749" fill="#DCEAFF" stroke="white" stroke-width="10"/>
<path d="M1285.74 756.868V760.765H1284.43V750.812H1288.1C1289.19 750.812 1290.04 751.09 1290.66 751.646C1291.28 752.202 1291.59 752.938 1291.59 753.854C1291.59 754.82 1291.28 755.565 1290.68 756.089C1290.08 756.609 1289.21 756.868 1288.09 756.868H1285.74ZM1285.74 755.795H1288.1C1288.8 755.795 1289.34 755.631 1289.71 755.303C1290.09 754.97 1290.27 754.492 1290.27 753.867C1290.27 753.275 1290.09 752.801 1289.71 752.446C1289.34 752.09 1288.83 751.906 1288.18 751.892H1285.74V755.795ZM1296.64 754.503C1296.45 754.471 1296.24 754.455 1296.02 754.455C1295.19 754.455 1294.62 754.809 1294.33 755.515V760.765H1293.06V753.368H1294.29L1294.31 754.223C1294.73 753.562 1295.32 753.232 1296.08 753.232C1296.32 753.232 1296.51 753.264 1296.64 753.327V754.503ZM1297.34 756.998C1297.34 756.274 1297.48 755.622 1297.76 755.043C1298.05 754.464 1298.44 754.018 1298.95 753.703C1299.46 753.389 1300.04 753.232 1300.69 753.232C1301.7 753.232 1302.51 753.58 1303.13 754.278C1303.76 754.975 1304.07 755.902 1304.07 757.06V757.149C1304.07 757.869 1303.93 758.516 1303.65 759.09C1303.38 759.66 1302.98 760.104 1302.47 760.423C1301.96 760.742 1301.37 760.902 1300.71 760.902C1299.7 760.902 1298.89 760.553 1298.27 759.856C1297.65 759.158 1297.34 758.236 1297.34 757.087V756.998ZM1298.61 757.149C1298.61 757.969 1298.8 758.628 1299.17 759.124C1299.56 759.621 1300.07 759.869 1300.71 759.869C1301.35 759.869 1301.86 759.619 1302.24 759.117C1302.62 758.612 1302.8 757.905 1302.8 756.998C1302.8 756.187 1302.61 755.531 1302.22 755.03C1301.84 754.524 1301.33 754.271 1300.69 754.271C1300.07 754.271 1299.56 754.519 1299.18 755.016C1298.8 755.513 1298.61 756.224 1298.61 757.149ZM1306.08 760.765V754.346H1304.91V753.368H1306.08V752.74C1306.08 751.915 1306.31 751.272 1306.78 750.812C1307.26 750.351 1307.92 750.121 1308.79 750.121C1309.3 750.121 1309.94 750.26 1310.72 750.538L1310.51 751.605C1309.94 751.377 1309.4 751.263 1308.88 751.263C1308.34 751.263 1307.95 751.386 1307.71 751.632C1307.47 751.874 1307.35 752.238 1307.35 752.726V753.368H1308.86V754.346H1307.35V760.765H1306.08ZM1311.35 760.765H1310.08V753.368H1311.35V760.765ZM1314.78 760.765H1313.52V750.265H1314.78V760.765ZM1287.3 776.902C1286.3 776.902 1285.48 776.573 1284.85 775.917C1284.22 775.256 1283.91 774.375 1283.91 773.272V773.039C1283.91 772.306 1284.05 771.652 1284.33 771.077C1284.61 770.499 1285 770.047 1285.5 769.724C1286.01 769.396 1286.56 769.232 1287.14 769.232C1288.1 769.232 1288.85 769.548 1289.39 770.182C1289.92 770.815 1290.19 771.722 1290.19 772.903V773.429H1285.17C1285.19 774.158 1285.4 774.748 1285.81 775.199C1286.22 775.646 1286.74 775.869 1287.37 775.869C1287.82 775.869 1288.19 775.778 1288.5 775.596C1288.81 775.414 1289.08 775.172 1289.32 774.871L1290.09 775.473C1289.47 776.425 1288.54 776.902 1287.3 776.902ZM1287.14 770.271C1286.63 770.271 1286.2 770.458 1285.86 770.831C1285.51 771.2 1285.3 771.72 1285.22 772.39H1288.92V772.294C1288.88 771.652 1288.71 771.155 1288.4 770.804C1288.09 770.448 1287.67 770.271 1287.14 770.271Z" fill="#979797"/>
<path d="M1264.42 753.248C1259.53 753.248 1255.55 757.224 1255.55 762.11C1255.55 762.323 1255.73 762.495 1255.94 762.495C1256.15 762.495 1256.32 762.323 1256.32 762.11C1256.32 757.648 1259.95 754.019 1264.42 754.019C1268.88 754.019 1272.51 757.648 1272.51 762.11C1272.51 762.323 1272.68 762.495 1272.89 762.495C1273.11 762.495 1273.28 762.323 1273.28 762.11C1273.28 757.223 1269.3 753.248 1264.42 753.248Z" fill="#979797"/>
<path d="M1264.42 743.953C1262.08 743.953 1260.18 745.854 1260.18 748.191C1260.18 750.529 1262.08 752.43 1264.42 752.43C1266.75 752.43 1268.66 750.529 1268.66 748.191C1268.66 745.854 1266.75 743.953 1264.42 743.953ZM1264.42 751.659C1262.5 751.659 1260.95 750.103 1260.95 748.191C1260.95 746.28 1262.5 744.724 1264.42 744.724C1266.33 744.724 1267.88 746.28 1267.88 748.191C1267.88 750.103 1266.33 751.659 1264.42 751.659Z" fill="#979797"/>
<path d="M1085.08 750.612H1081.88V759.485H1080.57V750.612H1077.38V749.532H1085.08V750.612ZM1089.41 753.224C1089.22 753.192 1089.01 753.176 1088.79 753.176C1087.96 753.176 1087.4 753.529 1087.1 754.235V759.485H1085.84V752.089H1087.07L1087.09 752.943C1087.5 752.283 1088.09 751.952 1088.85 751.952C1089.1 751.952 1089.28 751.984 1089.41 752.048V753.224ZM1091.95 759.485H1090.69V752.089H1091.95V759.485ZM1090.59 750.127C1090.59 749.922 1090.65 749.749 1090.77 749.607C1090.9 749.466 1091.09 749.396 1091.33 749.396C1091.58 749.396 1091.76 749.466 1091.89 749.607C1092.02 749.749 1092.08 749.922 1092.08 750.127C1092.08 750.332 1092.02 750.503 1091.89 750.64C1091.76 750.776 1091.58 750.845 1091.33 750.845C1091.09 750.845 1090.9 750.776 1090.77 750.64C1090.65 750.503 1090.59 750.332 1090.59 750.127ZM1100.23 755.869C1100.23 756.995 1099.97 757.902 1099.46 758.59C1098.94 759.278 1098.25 759.622 1097.37 759.622C1096.47 759.622 1095.76 759.337 1095.25 758.768V762.329H1093.98V752.089H1095.14L1095.2 752.909C1095.72 752.271 1096.43 751.952 1097.35 751.952C1098.24 751.952 1098.94 752.287 1099.45 752.957C1099.97 753.627 1100.23 754.559 1100.23 755.753V755.869ZM1098.97 755.726C1098.97 754.892 1098.79 754.233 1098.43 753.75C1098.08 753.267 1097.59 753.025 1096.97 753.025C1096.21 753.025 1095.63 753.365 1095.25 754.044V757.578C1095.63 758.253 1096.21 758.59 1096.98 758.59C1097.59 758.59 1098.07 758.351 1098.43 757.872C1098.79 757.389 1098.97 756.674 1098.97 755.726ZM1082.31 773.523C1082.31 773.182 1082.18 772.917 1081.92 772.73C1081.66 772.539 1081.21 772.375 1080.57 772.238C1079.93 772.102 1079.43 771.938 1079.05 771.746C1078.67 771.555 1078.4 771.327 1078.21 771.062C1078.04 770.798 1077.95 770.484 1077.95 770.119C1077.95 769.513 1078.2 769 1078.71 768.581C1079.23 768.162 1079.88 767.952 1080.68 767.952C1081.52 767.952 1082.2 768.169 1082.72 768.602C1083.24 769.035 1083.5 769.588 1083.5 770.263H1082.23C1082.23 769.916 1082.08 769.618 1081.79 769.367C1081.5 769.117 1081.13 768.991 1080.68 768.991C1080.22 768.991 1079.86 769.091 1079.6 769.292C1079.34 769.493 1079.21 769.755 1079.21 770.078C1079.21 770.383 1079.33 770.614 1079.57 770.769C1079.82 770.924 1080.25 771.072 1080.88 771.213C1081.51 771.354 1082.03 771.523 1082.42 771.719C1082.81 771.915 1083.1 772.152 1083.29 772.43C1083.48 772.703 1083.57 773.038 1083.57 773.435C1083.57 774.095 1083.31 774.626 1082.78 775.027C1082.25 775.424 1081.57 775.622 1080.72 775.622C1080.13 775.622 1079.61 775.517 1079.15 775.308C1078.69 775.098 1078.34 774.806 1078.08 774.433C1077.82 774.054 1077.69 773.646 1077.69 773.209H1078.96C1078.98 773.633 1079.15 773.97 1079.46 774.221C1079.78 774.467 1080.2 774.59 1080.72 774.59C1081.2 774.59 1081.58 774.494 1081.87 774.303C1082.16 774.107 1082.31 773.847 1082.31 773.523Z" fill="#979797"/>
<path d="M1066.98 744.773H1064.06V741.344H1064.67C1064.88 741.344 1065.04 741.179 1065.04 740.975C1065.04 740.771 1064.88 740.606 1064.67 740.606H1057.23C1057.03 740.606 1056.86 740.771 1056.86 740.975C1056.86 741.179 1057.03 741.344 1057.23 741.344H1057.85V744.773H1054.92C1053.97 744.773 1053.2 745.547 1053.2 746.498V762.488C1053.2 763.355 1053.84 764.074 1054.68 764.195V764.696C1054.68 765.306 1055.17 765.803 1055.78 765.803C1056.39 765.803 1056.89 765.306 1056.89 764.696V764.213H1065.01V764.696C1065.01 765.306 1065.51 765.803 1066.12 765.803C1066.73 765.803 1067.23 765.306 1067.23 764.696V764.195C1068.06 764.074 1068.7 763.355 1068.7 762.488V749.308C1068.7 749.104 1068.54 748.938 1068.34 748.938C1068.13 748.938 1067.97 749.104 1067.97 749.308V762.488C1067.97 763.032 1067.52 763.474 1066.98 763.474H1054.92C1054.38 763.474 1053.94 763.032 1053.94 762.488V746.498C1053.94 745.954 1054.38 745.512 1054.92 745.512H1066.98C1067.52 745.512 1067.97 745.954 1067.97 746.498V747.58C1067.97 747.784 1068.13 747.949 1068.34 747.949C1068.54 747.949 1068.7 747.784 1068.7 747.58V746.498C1068.7 745.547 1067.93 744.773 1066.98 744.773ZM1066.49 764.213V764.696C1066.49 764.899 1066.32 765.065 1066.12 765.065C1065.92 765.065 1065.75 764.899 1065.75 764.696V764.213H1066.49ZM1056.15 764.213V764.696C1056.15 764.899 1055.99 765.065 1055.78 765.065C1055.58 765.065 1055.41 764.899 1055.41 764.696V764.213H1056.15ZM1058.58 741.344H1063.32V744.773H1058.58V741.344Z" fill="#979797"/>
<path d="M1058.21 762.736H1066.86C1067.06 762.736 1067.23 762.571 1067.23 762.367V754.148C1067.23 753.945 1067.06 753.779 1066.86 753.779H1055.05C1054.84 753.779 1054.68 753.945 1054.68 754.148V762.367C1054.68 762.571 1054.84 762.736 1055.05 762.736H1056.52C1056.73 762.736 1056.89 762.571 1056.89 762.367C1056.89 762.163 1056.73 761.998 1056.52 761.998H1055.41V754.517H1066.49V761.998H1058.21C1058.01 761.998 1057.84 762.163 1057.84 762.367C1057.84 762.571 1058.01 762.736 1058.21 762.736Z" fill="#979797"/>
<path d="M1064.2 757.544C1064.41 757.544 1064.57 757.379 1064.57 757.175V755.976H1065.38C1065.59 755.976 1065.75 755.811 1065.75 755.607C1065.75 755.403 1065.59 755.238 1065.38 755.238H1056.52C1056.32 755.238 1056.15 755.403 1056.15 755.607C1056.15 755.811 1056.32 755.976 1056.52 755.976H1063.83V757.175C1063.83 757.379 1064 757.544 1064.2 757.544Z" fill="#979797"/>
<path d="M1063.41 750.676C1063.62 750.676 1063.78 750.51 1063.78 750.306V748.83C1063.78 748.626 1063.62 748.461 1063.41 748.461H1058.49C1058.29 748.461 1058.12 748.626 1058.12 748.83V750.306C1058.12 750.51 1058.29 750.676 1058.49 750.676H1063.41ZM1058.86 749.199H1063.04V749.937H1058.86V749.199Z" fill="#979797"/>
<path fill-rule="evenodd" clip-rule="evenodd" d="M1047.66 151.34L1046.48 150.155L1041.44 155.195L1046.48 160.234L1047.66 159.05L1043.82 155.195L1047.66 151.34Z" fill="#979797"/>
<path d="M1295.99 160.315V151.784H1298.51C1299.26 151.784 1299.93 151.952 1300.51 152.288C1301.1 152.624 1301.55 153.1 1301.87 153.718C1302.19 154.335 1302.35 155.042 1302.35 155.839V156.266C1302.35 157.075 1302.19 157.786 1301.86 158.399C1301.54 159.012 1301.08 159.485 1300.49 159.817C1299.89 160.149 1299.21 160.315 1298.44 160.315H1295.99ZM1297.47 152.979V159.132H1298.44C1299.21 159.132 1299.81 158.889 1300.22 158.405C1300.64 157.917 1300.85 157.218 1300.86 156.307V155.833C1300.86 154.907 1300.66 154.2 1300.26 153.712C1299.86 153.223 1299.27 152.979 1298.51 152.979H1297.47ZM1306.48 160.432C1305.58 160.432 1304.85 160.149 1304.28 159.583C1303.73 159.012 1303.45 158.255 1303.45 157.309V157.134C1303.45 156.501 1303.57 155.936 1303.81 155.44C1304.06 154.94 1304.4 154.552 1304.84 154.274C1305.28 153.997 1305.77 153.858 1306.32 153.858C1307.18 153.858 1307.85 154.134 1308.32 154.684C1308.79 155.235 1309.02 156.014 1309.02 157.022V157.596H1304.88C1304.92 158.12 1305.1 158.534 1305.4 158.839C1305.71 159.143 1306.1 159.296 1306.56 159.296C1307.22 159.296 1307.75 159.032 1308.16 158.505L1308.92 159.237C1308.67 159.616 1308.33 159.911 1307.91 160.122C1307.48 160.329 1307.01 160.432 1306.48 160.432ZM1306.31 155.001C1305.92 155.001 1305.6 155.137 1305.36 155.411C1305.12 155.684 1304.97 156.065 1304.91 156.553H1307.62V156.448C1307.59 155.971 1307.46 155.612 1307.24 155.37C1307.01 155.124 1306.71 155.001 1306.31 155.001ZM1311.92 152.434V153.975H1313.04V155.03H1311.92V158.569C1311.92 158.811 1311.97 158.987 1312.06 159.096C1312.16 159.202 1312.33 159.255 1312.58 159.255C1312.74 159.255 1312.91 159.235 1313.07 159.196V160.298C1312.75 160.387 1312.44 160.432 1312.14 160.432C1311.04 160.432 1310.5 159.829 1310.5 158.622V155.03H1309.45V153.975H1310.5V152.434H1311.92ZM1317.92 160.315C1317.86 160.194 1317.8 159.997 1317.75 159.723C1317.3 160.196 1316.75 160.432 1316.09 160.432C1315.45 160.432 1314.93 160.251 1314.53 159.887C1314.13 159.524 1313.93 159.075 1313.93 158.54C1313.93 157.864 1314.18 157.346 1314.68 156.987C1315.18 156.624 1315.9 156.442 1316.83 156.442H1317.71V156.026C1317.71 155.698 1317.62 155.436 1317.43 155.241C1317.25 155.042 1316.97 154.942 1316.59 154.942C1316.27 154.942 1316 155.024 1315.8 155.188C1315.59 155.348 1315.49 155.553 1315.49 155.803H1314.06C1314.06 155.456 1314.18 155.132 1314.41 154.831C1314.64 154.526 1314.95 154.288 1315.35 154.116C1315.75 153.944 1316.19 153.858 1316.68 153.858C1317.42 153.858 1318.01 154.046 1318.45 154.421C1318.89 154.792 1319.12 155.315 1319.13 155.991V158.85C1319.13 159.421 1319.21 159.876 1319.37 160.216V160.315H1317.92ZM1316.35 159.29C1316.64 159.29 1316.9 159.221 1317.15 159.085C1317.4 158.948 1317.58 158.764 1317.71 158.534V157.339H1316.94C1316.41 157.339 1316.02 157.43 1315.75 157.614C1315.49 157.798 1315.35 158.057 1315.35 158.393C1315.35 158.667 1315.44 158.885 1315.62 159.05C1315.81 159.21 1316.05 159.29 1316.35 159.29ZM1322.14 160.315H1320.71V153.975H1322.14V160.315ZM1320.63 152.329C1320.63 152.11 1320.69 151.928 1320.83 151.784C1320.97 151.639 1321.17 151.567 1321.43 151.567C1321.69 151.567 1321.89 151.639 1322.03 151.784C1322.17 151.928 1322.24 152.11 1322.24 152.329C1322.24 152.544 1322.17 152.723 1322.03 152.868C1321.89 153.009 1321.69 153.079 1321.43 153.079C1321.17 153.079 1320.97 153.009 1320.83 152.868C1320.69 152.723 1320.63 152.544 1320.63 152.329ZM1325.21 160.315H1323.78V151.315H1325.21V160.315ZM1330.32 158.593C1330.32 158.339 1330.21 158.145 1330 158.012C1329.79 157.88 1329.45 157.762 1328.96 157.661C1328.48 157.559 1328.08 157.43 1327.75 157.274C1327.04 156.93 1326.68 156.432 1326.68 155.78C1326.68 155.233 1326.92 154.776 1327.38 154.409C1327.84 154.042 1328.42 153.858 1329.13 153.858C1329.89 153.858 1330.5 154.046 1330.97 154.421C1331.44 154.796 1331.67 155.282 1331.67 155.88H1330.25C1330.25 155.606 1330.15 155.38 1329.94 155.2C1329.74 155.016 1329.47 154.925 1329.13 154.925C1328.82 154.925 1328.57 154.997 1328.37 155.141C1328.17 155.286 1328.07 155.479 1328.07 155.721C1328.07 155.94 1328.17 156.11 1328.35 156.231C1328.53 156.352 1328.9 156.475 1329.46 156.6C1330.02 156.721 1330.46 156.868 1330.77 157.04C1331.09 157.208 1331.33 157.411 1331.48 157.649C1331.64 157.887 1331.72 158.177 1331.72 158.516C1331.72 159.087 1331.48 159.55 1331.01 159.905C1330.54 160.257 1329.92 160.432 1329.15 160.432C1328.63 160.432 1328.17 160.339 1327.76 160.151C1327.36 159.964 1327.04 159.706 1326.81 159.378C1326.59 159.05 1326.47 158.696 1326.47 158.317H1327.86C1327.88 158.653 1328 158.913 1328.24 159.096C1328.47 159.276 1328.78 159.366 1329.17 159.366C1329.54 159.366 1329.83 159.296 1330.02 159.155C1330.22 159.01 1330.32 158.823 1330.32 158.593Z" fill="#979797"/>
<rect x="1071.68" y="198.869" width="223.44" height="30.2365" fill="#C4C4C4"/>
<rect x="1071.68" y="291.259" width="223.44" height="30.2365" fill="#C4C4C4"/>
<rect x="1071.68" y="383.648" width="223.44" height="30.2365" fill="#C4C4C4"/>
<rect x="1071.68" y="242.544" width="223.44" height="15.1182" fill="#C4C4C4"/>
<rect x="1071.68" y="334.934" width="223.44" height="15.1182" fill="#C4C4C4"/>
<rect x="1071.68" y="427.323" width="223.44" height="15.1182" fill="#C4C4C4"/>
<line x1="1050.84" y1="210.628" x2="1050.84" y2="300.498" stroke="#32DF77" stroke-width="2"/>
<line x1="1050.84" y1="300.498" x2="1050.84" y2="390.367" stroke="#979797" stroke-width="2"/>
<ellipse cx="1050.68" cy="209.788" rx="5.88" ry="5.87931" fill="#32DF77"/>
<ellipse cx="1050.68" cy="300.497" rx="5.88" ry="5.87931" fill="#AAB0BB"/>
<ellipse cx="1050.68" cy="390.367" rx="5.88" ry="5.87932" fill="#AAB0BB"/>
<rect x="1028" y="109" width="315" height="682" fill="#010101" fill-opacity="0.22"/>
<path d="M1028 531.313C1028 520.267 1036.95 511.313 1048 511.313H1323C1334.05 511.313 1343 520.267 1343 531.313V791H1028V531.313Z" fill="white"/>
<path d="M1049.84 553.948C1049.84 551.739 1051.63 549.948 1053.84 549.948H1154.2C1156.41 549.948 1158.2 551.739 1158.2 553.948V588.783C1158.2 590.992 1156.41 592.783 1154.2 592.783H1053.84C1051.63 592.783 1049.84 590.992 1049.84 588.783V553.948Z" fill="#D5D5D6"/>
<path d="M1049.84 620.699C1049.84 622.909 1051.63 624.699 1053.84 624.699H1312.96C1315.17 624.699 1316.96 622.909 1316.96 620.699V614.421C1316.96 612.212 1315.17 610.421 1312.96 610.421H1053.84C1051.63 610.421 1049.84 612.212 1049.84 614.421V620.699Z" fill="#E5E5E5"/>
<path d="M1049.84 645.896C1049.84 648.106 1051.63 649.896 1053.84 649.896H1134.04C1136.25 649.896 1138.04 648.106 1138.04 645.896V639.618C1138.04 637.409 1136.25 635.618 1134.04 635.618H1053.84C1051.63 635.618 1049.84 637.409 1049.84 639.618V645.896Z" fill="#E5E5E5"/>
<path d="M1049.84 668.574C1049.84 670.783 1051.63 672.574 1053.84 672.574H1134.04C1136.25 672.574 1138.04 670.783 1138.04 668.574V662.295C1138.04 660.086 1136.25 658.295 1134.04 658.295H1053.84C1051.63 658.295 1049.84 660.086 1049.84 662.295V668.574Z" fill="#E5E5E5"/>
<path d="M1208.6 553.948C1208.6 551.739 1210.39 549.948 1212.6 549.948H1312.96C1315.17 549.948 1316.96 551.739 1316.96 553.948V588.783C1316.96 590.992 1315.17 592.783 1312.96 592.783H1212.6C1210.39 592.783 1208.6 590.992 1208.6 588.783V553.948Z" fill="#D5D5D6"/>
<path d="M1181.72 580.185L1183.4 580.185L1187.6 573.465L1192.22 573.465C1192.92 573.465 1193.48 572.903 1193.48 572.206C1193.48 571.509 1192.92 570.946 1192.22 570.946L1187.6 570.946L1183.4 564.227L1181.72 564.227L1183.82 570.946L1179.2 570.946L1177.94 569.266L1176.68 569.266L1177.52 572.206L1176.68 575.145L1177.94 575.145L1179.2 573.465L1183.82 573.465L1181.72 580.185Z" fill="#1E1E1E"/>
<rect x="1047.32" y="712.889" width="264.6" height="41.9951" rx="6" fill="#C4C4C4"/>
<rect x="1072" y="142" width="166" height="28" rx="6" fill="#C4C4C4"/>
</g>
<g filter="url(#filter2_d)">
<rect width="315" height="682" transform="translate(562 109)" fill="white"/>
<rect x="562" y="135.037" width="315" height="40.3153" fill="white"/>
<path fill-rule="evenodd" clip-rule="evenodd" d="M581.664 151.34L580.48 150.155L575.44 155.195L580.48 160.234L581.664 159.05L577.817 155.195L581.664 151.34Z" fill="#979797"/>
<path d="M819.987 160.315V151.784H822.507C823.261 151.784 823.929 151.952 824.511 152.288C825.097 152.624 825.55 153.101 825.87 153.718C826.19 154.335 826.351 155.042 826.351 155.839V156.267C826.351 157.075 826.188 157.786 825.864 158.399C825.544 159.013 825.085 159.485 824.487 159.817C823.894 160.149 823.212 160.315 822.442 160.315H819.987ZM821.47 152.979V159.132H822.437C823.214 159.132 823.81 158.89 824.224 158.405C824.642 157.917 824.854 157.218 824.862 156.308V155.833C824.862 154.907 824.661 154.2 824.259 153.712C823.856 153.224 823.272 152.979 822.507 152.979H821.47ZM830.481 160.433C829.579 160.433 828.847 160.149 828.284 159.583C827.726 159.013 827.446 158.255 827.446 157.31V157.134C827.446 156.501 827.567 155.937 827.81 155.44C828.056 154.94 828.399 154.552 828.841 154.274C829.282 153.997 829.774 153.858 830.317 153.858C831.181 153.858 831.847 154.134 832.315 154.685C832.788 155.235 833.024 156.015 833.024 157.022V157.597H828.882C828.925 158.12 829.099 158.534 829.403 158.839C829.712 159.144 830.099 159.296 830.563 159.296C831.216 159.296 831.747 159.032 832.157 158.505L832.925 159.237C832.671 159.616 832.331 159.911 831.905 160.122C831.483 160.329 831.009 160.433 830.481 160.433ZM830.312 155.001C829.921 155.001 829.604 155.138 829.362 155.411C829.124 155.685 828.972 156.065 828.905 156.554H831.618V156.448C831.587 155.972 831.46 155.612 831.237 155.37C831.015 155.124 830.706 155.001 830.312 155.001ZM835.919 152.435V153.976H837.038V155.03H835.919V158.569C835.919 158.812 835.966 158.987 836.06 159.097C836.157 159.202 836.329 159.255 836.575 159.255C836.739 159.255 836.905 159.235 837.073 159.196V160.298C836.749 160.388 836.437 160.433 836.136 160.433C835.042 160.433 834.495 159.829 834.495 158.622V155.03H833.452V153.976H834.495V152.435H835.919ZM841.919 160.315C841.856 160.194 841.802 159.997 841.755 159.724C841.302 160.196 840.747 160.433 840.091 160.433C839.454 160.433 838.935 160.251 838.532 159.888C838.13 159.524 837.929 159.075 837.929 158.54C837.929 157.864 838.179 157.347 838.679 156.987C839.183 156.624 839.901 156.442 840.835 156.442H841.708V156.026C841.708 155.698 841.616 155.437 841.433 155.241C841.249 155.042 840.97 154.942 840.595 154.942C840.271 154.942 840.005 155.024 839.798 155.188C839.591 155.349 839.487 155.554 839.487 155.804H838.063C838.063 155.456 838.179 155.132 838.409 154.831C838.64 154.526 838.952 154.288 839.347 154.116C839.745 153.944 840.188 153.858 840.677 153.858C841.419 153.858 842.011 154.046 842.452 154.421C842.894 154.792 843.12 155.315 843.132 155.991V158.851C843.132 159.421 843.212 159.876 843.372 160.216V160.315H841.919ZM840.354 159.29C840.636 159.29 840.899 159.222 841.146 159.085C841.396 158.948 841.583 158.765 841.708 158.534V157.339H840.94C840.413 157.339 840.017 157.431 839.751 157.614C839.485 157.798 839.353 158.058 839.353 158.394C839.353 158.667 839.442 158.886 839.622 159.05C839.806 159.21 840.05 159.29 840.354 159.29ZM846.138 160.315H844.714V153.976H846.138V160.315ZM844.626 152.329C844.626 152.11 844.694 151.929 844.831 151.784C844.972 151.64 845.171 151.567 845.429 151.567C845.687 151.567 845.886 151.64 846.026 151.784C846.167 151.929 846.237 152.11 846.237 152.329C846.237 152.544 846.167 152.724 846.026 152.868C845.886 153.009 845.687 153.079 845.429 153.079C845.171 153.079 844.972 153.009 844.831 152.868C844.694 152.724 844.626 152.544 844.626 152.329ZM849.208 160.315H847.784V151.315H849.208V160.315ZM854.317 158.593C854.317 158.339 854.212 158.146 854.001 158.013C853.794 157.88 853.448 157.763 852.964 157.661C852.479 157.56 852.075 157.431 851.751 157.274C851.04 156.931 850.685 156.433 850.685 155.78C850.685 155.233 850.915 154.776 851.376 154.409C851.837 154.042 852.423 153.858 853.134 153.858C853.892 153.858 854.503 154.046 854.968 154.421C855.437 154.796 855.671 155.282 855.671 155.88H854.247C854.247 155.606 854.146 155.38 853.942 155.2C853.739 155.017 853.47 154.925 853.134 154.925C852.821 154.925 852.565 154.997 852.366 155.142C852.171 155.286 852.073 155.479 852.073 155.722C852.073 155.94 852.165 156.11 852.349 156.231C852.532 156.353 852.903 156.476 853.462 156.601C854.021 156.722 854.458 156.868 854.774 157.04C855.095 157.208 855.331 157.411 855.483 157.649C855.64 157.888 855.718 158.177 855.718 158.517C855.718 159.087 855.481 159.55 855.009 159.905C854.536 160.257 853.917 160.433 853.151 160.433C852.632 160.433 852.169 160.339 851.763 160.151C851.356 159.964 851.04 159.706 850.813 159.378C850.587 159.05 850.474 158.696 850.474 158.317H851.856C851.876 158.653 852.003 158.913 852.237 159.097C852.472 159.276 852.782 159.366 853.169 159.366C853.544 159.366 853.829 159.296 854.024 159.155C854.22 159.011 854.317 158.823 854.317 158.593Z" fill="#979797"/>
<rect x="605.68" y="198.869" width="223.44" height="30.2365" fill="#AAB0BB"/>
<rect x="605.68" y="291.259" width="223.44" height="30.2365" fill="#AAB0BB"/>
<rect x="605.68" y="383.648" width="223.44" height="30.2365" fill="#AAB0BB"/>
<rect x="605.68" y="242.544" width="223.44" height="15.1182" fill="#CAD0DC"/>
<rect x="605.68" y="334.934" width="223.44" height="15.1182" fill="#CAD0DC"/>
<rect x="605.68" y="427.323" width="223.44" height="15.1182" fill="#CAD0DC"/>
<line x1="584.84" y1="210.628" x2="584.84" y2="300.498" stroke="#32DF77" stroke-width="2"/>
<line x1="584.84" y1="300.498" x2="584.84" y2="390.367" stroke="#979797" stroke-width="2"/>
<ellipse cx="584.68" cy="209.788" rx="5.88" ry="5.87931" fill="#32DF77"/>
<ellipse cx="584.68" cy="300.497" rx="5.88" ry="5.87931" fill="#AAB0BB"/>
<ellipse cx="584.68" cy="390.367" rx="5.88" ry="5.87932" fill="#AAB0BB"/>
<rect x="605" y="142" width="166" height="28" rx="6" fill="#C4C4C4"/>
</g>
<g filter="url(#filter3_d)">
<rect x="309.4" y="928" width="324.199" height="702" fill="white"/>
<path d="M334.472 993.382C334.472 991.173 336.263 989.382 338.472 989.382H441.996C444.205 989.382 445.996 991.173 445.996 993.382V1022.23H334.472V993.382Z" fill="#B5BECA"/>
<path d="M497.868 993.382C497.868 991.173 499.659 989.382 501.868 989.382H605.393C607.602 989.382 609.393 991.173 609.393 993.382V1022.23H497.868V993.382Z" fill="#E2E6EB"/>
<line x1="309.4" y1="1021.73" x2="633.6" y2="1021.73" stroke="#8D8D8D"/>
<path d="M334.472 1060.82C334.472 1058.61 336.263 1056.82 338.472 1056.82H441.997C444.206 1056.82 445.997 1058.61 445.997 1060.82V1096.91C445.997 1099.12 444.206 1100.91 441.997 1100.91H338.472C336.263 1100.91 334.472 1099.12 334.472 1096.91V1060.82Z" fill="#D5D5D6"/>
<path d="M334.472 1129.76C334.472 1131.97 336.263 1133.76 338.472 1133.76H605.393C607.602 1133.76 609.393 1131.97 609.393 1129.76V1123.06C609.393 1120.85 607.602 1119.06 605.393 1119.06H338.472C336.263 1119.06 334.472 1120.85 334.472 1123.06V1129.76Z" fill="#E5E5E5"/>
<path d="M334.472 1155.69C334.472 1157.9 336.263 1159.69 338.472 1159.69H421.248C423.457 1159.69 425.248 1157.9 425.248 1155.69V1149C425.248 1146.79 423.457 1145 421.248 1145H338.472C336.263 1145 334.472 1146.79 334.472 1149V1155.69Z" fill="#E5E5E5"/>
<path d="M334.472 1179.04C334.472 1181.25 336.263 1183.04 338.472 1183.04H421.248C423.457 1183.04 425.248 1181.25 425.248 1179.04V1172.34C425.248 1170.13 423.457 1168.34 421.248 1168.34H338.472C336.263 1168.34 334.472 1170.13 334.472 1172.34V1179.04Z" fill="#E5E5E5"/>
<path d="M497.868 1060.82C497.868 1058.61 499.659 1056.82 501.868 1056.82H605.393C607.602 1056.82 609.393 1058.61 609.393 1060.82V1096.91C609.393 1099.12 607.602 1100.91 605.393 1100.91H501.868C499.659 1100.91 497.868 1099.12 497.868 1096.91V1060.82Z" fill="#D5D5D6"/>
<path d="M470.203 1087.94L471.932 1087.94L476.255 1081.02L481.01 1081.02C481.727 1081.02 482.307 1080.44 482.307 1079.73C482.307 1079.01 481.727 1078.43 481.01 1078.43L476.255 1078.43L471.932 1071.51L470.203 1071.51L472.365 1078.43L467.61 1078.43L466.313 1076.7L465.016 1076.7L465.881 1079.73L465.016 1082.75L466.313 1082.75L467.61 1081.02L472.365 1081.02L470.203 1087.94Z" fill="#1E1E1E"/>
<path d="M334.472 1234.59C334.472 1232.38 336.263 1230.59 338.472 1230.59H441.997C444.206 1230.59 445.997 1232.38 445.997 1234.59V1270.68C445.997 1272.89 444.206 1274.68 441.997 1274.68H338.472C336.263 1274.68 334.472 1272.89 334.472 1270.68V1234.59Z" fill="#D5D5D6"/>
<path d="M334.472 1303.53C334.472 1305.74 336.263 1307.53 338.472 1307.53H605.393C607.602 1307.53 609.393 1305.74 609.393 1303.53V1296.83C609.393 1294.62 607.602 1292.83 605.393 1292.83H338.472C336.263 1292.83 334.472 1294.62 334.472 1296.83V1303.53Z" fill="#E5E5E5"/>
<path d="M334.472 1329.47C334.472 1331.67 336.263 1333.47 338.472 1333.47H421.248C423.457 1333.47 425.248 1331.67 425.248 1329.47V1322.77C425.248 1320.56 423.457 1318.77 421.248 1318.77H338.472C336.263 1318.77 334.472 1320.56 334.472 1322.77V1329.47Z" fill="#E5E5E5"/>
<path d="M334.472 1352.81C334.472 1355.02 336.263 1356.81 338.472 1356.81H421.248C423.457 1356.81 425.248 1355.02 425.248 1352.81V1346.11C425.248 1343.9 423.457 1342.11 421.248 1342.11H338.472C336.263 1342.11 334.472 1343.9 334.472 1346.11V1352.81Z" fill="#E5E5E5"/>
<path d="M497.868 1234.59C497.868 1232.38 499.659 1230.59 501.868 1230.59H605.393C607.602 1230.59 609.393 1232.38 609.393 1234.59V1270.68C609.393 1272.89 607.602 1274.68 605.393 1274.68H501.868C499.659 1274.68 497.868 1272.89 497.868 1270.68V1234.59Z" fill="#D5D5D6"/>
<path d="M470.203 1260.84L471.932 1260.84L476.255 1253.93L481.01 1253.93C481.727 1253.93 482.307 1253.35 482.307 1252.63C482.307 1251.91 481.727 1251.33 481.01 1251.33L476.255 1251.33L471.932 1244.42L470.203 1244.42L472.365 1251.33L467.61 1251.33L466.313 1249.61L465.016 1249.61L465.881 1252.63L465.016 1255.66L466.313 1255.66L467.61 1253.93L472.365 1253.93L470.203 1260.84Z" fill="#1E1E1E"/>
<path d="M334.472 1421.33C334.472 1419.12 336.263 1417.33 338.472 1417.33H441.997C444.206 1417.33 445.997 1419.12 445.997 1421.33V1457.42C445.997 1459.63 444.206 1461.42 441.997 1461.42H338.472C336.263 1461.42 334.472 1459.63 334.472 1457.42V1421.33Z" fill="#D5D5D6"/>
<path d="M334.472 1490.27C334.472 1492.48 336.263 1494.27 338.472 1494.27H605.393C607.602 1494.27 609.393 1492.48 609.393 1490.27V1483.57C609.393 1481.36 607.602 1479.57 605.393 1479.57H338.472C336.263 1479.57 334.472 1481.36 334.472 1483.57V1490.27Z" fill="#E5E5E5"/>
<path d="M334.472 1516.2C334.472 1518.41 336.263 1520.2 338.472 1520.2H421.248C423.457 1520.2 425.248 1518.41 425.248 1516.2V1509.51C425.248 1507.3 423.457 1505.51 421.248 1505.51H338.472C336.263 1505.51 334.472 1507.3 334.472 1509.51V1516.2Z" fill="#E5E5E5"/>
<path d="M334.472 1539.55C334.472 1541.76 336.263 1543.55 338.472 1543.55H421.248C423.457 1543.55 425.248 1541.76 425.248 1539.55V1532.85C425.248 1530.64 423.457 1528.85 421.248 1528.85H338.472C336.263 1528.85 334.472 1530.64 334.472 1532.85V1539.55Z" fill="#E5E5E5"/>
<path d="M497.868 1421.33C497.868 1419.12 499.659 1417.33 501.868 1417.33H605.393C607.602 1417.33 609.393 1419.12 609.393 1421.33V1457.42C609.393 1459.63 607.602 1461.42 605.393 1461.42H501.868C499.659 1461.42 497.868 1459.63 497.868 1457.42V1421.33Z" fill="#D5D5D6"/>
<path d="M470.203 1447.58L471.932 1447.58L476.255 1440.67L481.01 1440.67C481.727 1440.67 482.307 1440.09 482.307 1439.37C482.307 1438.65 481.727 1438.07 481.01 1438.07L476.255 1438.07L471.932 1431.16L470.203 1431.16L472.365 1438.07L467.61 1438.07L466.313 1436.34L465.016 1436.34L465.881 1439.37L465.016 1442.4L466.313 1442.4L467.61 1440.67L472.365 1440.67L470.203 1447.58Z" fill="#1E1E1E"/>
<line x1="334.472" y1="1201.56" x2="633.6" y2="1201.56" stroke="#B6B6B6"/>
<line x1="334.472" y1="1387.43" x2="633.6" y2="1387.43" stroke="#B6B6B6"/>
</g>
<g filter="url(#filter4_d)">
<rect x="788.4" y="928" width="324.199" height="702" fill="white"/>
<path d="M802.233 979.549C802.233 977.34 804.024 975.549 806.233 975.549H1087.85C1090.06 975.549 1091.85 977.34 1091.85 979.549V1004.4C1091.85 1006.61 1090.06 1008.4 1087.85 1008.4H806.233C804.024 1008.4 802.233 1006.61 802.233 1004.4V979.549Z" fill="#8D8D8D"/>
<rect x="802.233" y="1265.17" width="142.648" height="19.0197" rx="2" fill="#D5D5D6"/>
<path d="M802.233 1308.94C802.233 1306.73 804.024 1304.94 806.233 1304.94H1051.54C1053.75 1304.94 1055.54 1306.73 1055.54 1308.94V1319.96C1055.54 1322.16 1053.75 1323.96 1051.54 1323.96H806.233C804.024 1323.96 802.233 1322.16 802.233 1319.96V1308.94Z" fill="#E2E6EB"/>
<path d="M802.233 1335.74C802.233 1333.53 804.024 1331.74 806.233 1331.74H898.519C900.728 1331.74 902.519 1333.53 902.519 1335.74V1339.84C902.519 1342.05 900.728 1343.84 898.519 1343.84H806.233C804.024 1343.84 802.233 1342.05 802.233 1339.84V1335.74Z" fill="#E2E6EB"/>
<path d="M802.233 1355.62C802.233 1353.41 804.024 1351.62 806.233 1351.62H940.881C943.09 1351.62 944.881 1353.41 944.881 1355.62V1359.72C944.881 1361.93 943.09 1363.72 940.881 1363.72H806.233C804.024 1363.72 802.233 1361.93 802.233 1359.72V1355.62Z" fill="#E2E6EB"/>
<path d="M802.233 1395.39C802.233 1393.18 804.024 1391.39 806.233 1391.39H1051.54C1053.75 1391.39 1055.54 1393.18 1055.54 1395.39V1406.41C1055.54 1408.62 1053.75 1410.41 1051.54 1410.41H806.233C804.024 1410.41 802.233 1408.62 802.233 1406.41V1395.39Z" fill="#E2E6EB"/>
<path d="M802.233 1422.19C802.233 1419.98 804.024 1418.19 806.233 1418.19H898.519C900.728 1418.19 902.519 1419.98 902.519 1422.19V1426.29C902.519 1428.5 900.728 1430.29 898.519 1430.29H806.233C804.024 1430.29 802.233 1428.5 802.233 1426.29V1422.19Z" fill="#E2E6EB"/>
<path d="M802.233 1442.07C802.233 1439.86 804.024 1438.07 806.233 1438.07H940.881C943.09 1438.07 944.881 1439.86 944.881 1442.07V1446.18C944.881 1448.39 943.09 1450.18 940.881 1450.18H806.233C804.024 1450.18 802.233 1448.39 802.233 1446.18V1442.07Z" fill="#E2E6EB"/>
<path d="M802.233 1480.98C802.233 1478.77 804.024 1476.98 806.233 1476.98H1051.54C1053.75 1476.98 1055.54 1478.77 1055.54 1480.98V1492C1055.54 1494.21 1053.75 1496 1051.54 1496H806.233C804.024 1496 802.233 1494.21 802.233 1492V1480.98Z" fill="#E2E6EB"/>
<path d="M802.233 1507.78C802.233 1505.57 804.024 1503.78 806.233 1503.78H898.519C900.728 1503.78 902.519 1505.57 902.519 1507.78V1511.88C902.519 1514.09 900.728 1515.88 898.519 1515.88H806.233C804.024 1515.88 802.233 1514.09 802.233 1511.88V1507.78Z" fill="#E2E6EB"/>
<path d="M802.233 1527.66C802.233 1525.45 804.024 1523.66 806.233 1523.66H940.881C943.09 1523.66 944.881 1525.45 944.881 1527.66V1531.77C944.881 1533.98 943.09 1535.77 940.881 1535.77H806.233C804.024 1535.77 802.233 1533.98 802.233 1531.77V1527.66Z" fill="#E2E6EB"/>
<path d="M802.233 1046.12C802.233 1043.91 804.024 1042.12 806.233 1042.12H894.196C896.405 1042.12 898.196 1043.91 898.196 1046.12V1057.14C898.196 1059.35 896.405 1061.14 894.196 1061.14H806.233C804.024 1061.14 802.233 1059.35 802.233 1057.14V1046.12Z" fill="#E2E6EB"/>
<path d="M802.233 1078.97C802.233 1076.76 804.024 1074.97 806.233 1074.97H894.196C896.405 1074.97 898.196 1076.76 898.196 1078.97V1089.99C898.196 1092.2 896.405 1093.99 894.196 1093.99H806.233C804.024 1093.99 802.233 1092.2 802.233 1089.99V1078.97Z" fill="#E2E6EB"/>
<path d="M802.233 1111.82C802.233 1109.61 804.024 1107.82 806.233 1107.82H894.196C896.405 1107.82 898.196 1109.61 898.196 1111.82V1122.84C898.196 1125.05 896.405 1126.84 894.196 1126.84H806.233C804.024 1126.84 802.233 1125.05 802.233 1122.84V1111.82Z" fill="#E2E6EB"/>
<path d="M802.233 1144.67C802.233 1142.47 804.024 1140.67 806.233 1140.67H894.196C896.405 1140.67 898.196 1142.47 898.196 1144.67V1155.69C898.196 1157.9 896.405 1159.69 894.196 1159.69H806.233C804.024 1159.69 802.233 1157.9 802.233 1155.69V1144.67Z" fill="#E2E6EB"/>
<path d="M802.233 1177.53C802.233 1175.32 804.024 1173.53 806.233 1173.53H894.196C896.405 1173.53 898.196 1175.32 898.196 1177.53V1188.55C898.196 1190.76 896.405 1192.55 894.196 1192.55H806.233C804.024 1192.55 802.233 1190.76 802.233 1188.55V1177.53Z" fill="#E2E6EB"/>
<path d="M802.233 1210.38C802.233 1208.17 804.024 1206.38 806.233 1206.38H894.196C896.405 1206.38 898.196 1208.17 898.196 1210.38V1221.4C898.196 1223.61 896.405 1225.4 894.196 1225.4H806.233C804.024 1225.4 802.233 1223.61 802.233 1221.4V1210.38Z" fill="#E2E6EB"/>
<path d="M976.004 1046.12C976.004 1043.91 977.795 1042.12 980.004 1042.12H1087.85C1090.06 1042.12 1091.85 1043.91 1091.85 1046.12V1057.14C1091.85 1059.35 1090.06 1061.14 1087.85 1061.14H980.004C977.795 1061.14 976.004 1059.35 976.004 1057.14V1046.12Z" fill="#E2E6EB"/>
<path d="M976.004 1078.97C976.004 1076.76 977.795 1074.97 980.004 1074.97H1087.85C1090.06 1074.97 1091.85 1076.76 1091.85 1078.97V1089.99C1091.85 1092.2 1090.06 1093.99 1087.85 1093.99H980.004C977.795 1093.99 976.004 1092.2 976.004 1089.99V1078.97Z" fill="#E2E6EB"/>
<path d="M976.004 1111.82C976.004 1109.61 977.795 1107.82 980.004 1107.82H1087.85C1090.06 1107.82 1091.85 1109.61 1091.85 1111.82V1122.84C1091.85 1125.05 1090.06 1126.84 1087.85 1126.84H980.004C977.795 1126.84 976.004 1125.05 976.004 1122.84V1111.82Z" fill="#E2E6EB"/>
<path d="M976.004 1144.67C976.004 1142.47 977.795 1140.67 980.004 1140.67H1087.85C1090.06 1140.67 1091.85 1142.47 1091.85 1144.67V1155.69C1091.85 1157.9 1090.06 1159.69 1087.85 1159.69H980.004C977.795 1159.69 976.004 1157.9 976.004 1155.69V1144.67Z" fill="#E2E6EB"/>
<path d="M976.004 1177.53C976.004 1175.32 977.795 1173.53 980.004 1173.53H1087.85C1090.06 1173.53 1091.85 1175.32 1091.85 1177.53V1188.55C1091.85 1190.76 1090.06 1192.55 1087.85 1192.55H980.004C977.795 1192.55 976.004 1190.76 976.004 1188.55V1177.53Z" fill="#E2E6EB"/>
<path d="M976.004 1210.38C976.004 1208.17 977.795 1206.38 980.004 1206.38H1087.85C1090.06 1206.38 1091.85 1208.17 1091.85 1210.38V1221.4C1091.85 1223.61 1090.06 1225.4 1087.85 1225.4H980.004C977.795 1225.4 976.004 1223.61 976.004 1221.4V1210.38Z" fill="#E2E6EB"/>
</g>
<defs>
<filter id="filter0_d" x="71" y="89" width="365" height="732" filterUnits="userSpaceOnUse" color-interpolation-filters="sRGB">
<feFlood flood-opacity="0" result="BackgroundImageFix"/>
<feColorMatrix in="SourceAlpha" type="matrix" values="0 0 0 0 0 0 0 0 0 0 0 0 0 0 0 0 0 0 127 0"/>
<feOffset dy="5"/>
<feGaussianBlur stdDeviation="12.5"/>
<feColorMatrix type="matrix" values="0 0 0 0 0 0 0 0 0 0 0 0 0 0 0 0 0 0 0.11 0"/>
<feBlend mode="normal" in2="BackgroundImageFix" result="effect1_dropShadow"/>
<feBlend mode="normal" in="SourceGraphic" in2="effect1_dropShadow" result="shape"/>
</filter>
<filter id="filter1_d" x="1003" y="89" width="365" height="732" filterUnits="userSpaceOnUse" color-interpolation-filters="sRGB">
<feFlood flood-opacity="0" result="BackgroundImageFix"/>
<feColorMatrix in="SourceAlpha" type="matrix" values="0 0 0 0 0 0 0 0 0 0 0 0 0 0 0 0 0 0 127 0"/>
<feOffset dy="5"/>
<feGaussianBlur stdDeviation="12.5"/>
<feColorMatrix type="matrix" values="0 0 0 0 0 0 0 0 0 0 0 0 0 0 0 0 0 0 0.1 0"/>
<feBlend mode="normal" in2="BackgroundImageFix" result="effect1_dropShadow"/>
<feBlend mode="normal" in="SourceGraphic" in2="effect1_dropShadow" result="shape"/>
</filter>
<filter id="filter2_d" x="538" y="90" width="363" height="730" filterUnits="userSpaceOnUse" color-interpolation-filters="sRGB">
<feFlood flood-opacity="0" result="BackgroundImageFix"/>
<feColorMatrix in="SourceAlpha" type="matrix" values="0 0 0 0 0 0 0 0 0 0 0 0 0 0 0 0 0 0 127 0"/>
<feOffset dy="5"/>
<feGaussianBlur stdDeviation="12"/>
<feColorMatrix type="matrix" values="0 0 0 0 0 0 0 0 0 0 0 0 0 0 0 0 0 0 0.11 0"/>
<feBlend mode="normal" in2="BackgroundImageFix" result="effect1_dropShadow"/>
<feBlend mode="normal" in="SourceGraphic" in2="effect1_dropShadow" result="shape"/>
</filter>
<filter id="filter3_d" x="284.4" y="908" width="374.2" height="752" filterUnits="userSpaceOnUse" color-interpolation-filters="sRGB">
<feFlood flood-opacity="0" result="BackgroundImageFix"/>
<feColorMatrix in="SourceAlpha" type="matrix" values="0 0 0 0 0 0 0 0 0 0 0 0 0 0 0 0 0 0 127 0"/>
<feOffset dy="5"/>
<feGaussianBlur stdDeviation="12.5"/>
<feColorMatrix type="matrix" values="0 0 0 0 0 0 0 0 0 0 0 0 0 0 0 0 0 0 0.11 0"/>
<feBlend mode="normal" in2="BackgroundImageFix" result="effect1_dropShadow"/>
<feBlend mode="normal" in="SourceGraphic" in2="effect1_dropShadow" result="shape"/>
</filter>
<filter id="filter4_d" x="763.4" y="908" width="374.199" height="752" filterUnits="userSpaceOnUse" color-interpolation-filters="sRGB">
<feFlood flood-opacity="0" result="BackgroundImageFix"/>
<feColorMatrix in="SourceAlpha" type="matrix" values="0 0 0 0 0 0 0 0 0 0 0 0 0 0 0 0 0 0 127 0"/>
<feOffset dy="5"/>
<feGaussianBlur stdDeviation="12.5"/>
<feColorMatrix type="matrix" values="0 0 0 0 0 0 0 0 0 0 0 0 0 0 0 0 0 0 0.11 0"/>
<feBlend mode="normal" in2="BackgroundImageFix" result="effect1_dropShadow"/>
<feBlend mode="normal" in="SourceGraphic" in2="effect1_dropShadow" result="shape"/>
</filter>
</defs>
</svg>
