<svg width="1608" height="99" viewBox="0 0 1608 99" fill="none" xmlns="http://www.w3.org/2000/svg">
<path d="M390.562 60.539C390.562 57.479 393.042 54.999 396.102 54.999C399.162 54.999 401.642 57.479 401.642 60.539C401.642 63.599 399.162 66.079 396.102 66.079C393.042 66.079 390.562 63.599 390.562 60.539Z" fill="url(#paint0_linear)"/>
<path d="M351.312 75.419C349.473 75.419 347.982 76.9099 347.982 78.749C347.982 80.5881 349.473 82.079 351.312 82.079C353.151 82.079 354.642 80.5881 354.642 78.749C354.642 76.9099 353.151 75.419 351.312 75.419Z" fill="#FAA7A7"/>
<path d="M531.562 1.539C531.562 0.689002 532.252 -0.00100708 533.102 -0.00100708C533.952 -0.00100708 534.642 0.689002 534.642 1.539C534.642 2.389 533.952 3.07898 533.102 3.07898C532.252 3.06898 531.562 2.389 531.562 1.539Z" fill="#6DADF8"/>
<path d="M574.312 12.419C572.472 12.419 570.982 13.9099 570.982 15.749C570.982 17.5881 572.472 19.079 574.312 19.079C576.151 19.079 577.642 17.5881 577.642 15.749C577.642 13.9099 576.151 12.419 574.312 12.419Z" fill="#6DADF8"/>
<path d="M441.312 91.419C439.472 91.419 437.982 92.9099 437.982 94.749C437.982 96.5881 439.472 98.079 441.312 98.079C443.151 98.079 444.642 96.5881 444.642 94.749C444.642 92.9099 443.151 91.419 441.312 91.419Z" fill="#6DADF8"/>
<path d="M483.472 45.079L495.642 36.549L481.002 28.979L483.472 45.079Z" fill="#FF7E3D"/>
<path d="M7.29483 67.3532C6.8186 69.1306 4.99376 70.1841 3.21645 69.7079C1.43915 69.2316 0.385534 67.4068 0.861761 65.6295C1.33799 63.8522 3.16288 62.7986 4.94018 63.2748C6.71749 63.7511 7.77106 65.5759 7.29483 67.3532Z" fill="#FAA7A7"/>
<path d="M171.78 94.8624C171.303 96.6397 169.479 97.6933 167.701 97.2171C165.924 96.7409 164.87 94.916 165.347 93.1387C165.823 91.3614 167.648 90.3078 169.425 90.784C171.202 91.2602 172.256 93.0851 171.78 94.8624Z" fill="#FAA7A7"/>
<path d="M121.391 63.9991L129.309 69.9928L137.009 57.2515L121.391 63.9991Z" fill="#FF7E3D"/>
<path d="M61.1066 6.93189L63.3883 27.317L97.6268 10.4643L61.1066 6.93189Z" fill="url(#paint1_linear)"/>
<path d="M1420.56 37.54C1420.56 40.6 1423.04 43.08 1426.1 43.08C1429.16 43.08 1431.64 40.6 1431.64 37.54C1431.64 34.48 1429.16 32 1426.1 32C1423.04 32 1420.56 34.48 1420.56 37.54Z" fill="url(#paint2_linear)"/>
<path d="M1381.31 22.66C1379.47 22.66 1377.98 21.1691 1377.98 19.33C1377.98 17.4908 1379.47 16 1381.31 16C1383.15 16 1384.64 17.4908 1384.64 19.33C1384.64 21.1691 1383.15 22.66 1381.31 22.66Z" fill="#FAA7A7"/>
<path d="M1561.56 96.54C1561.56 97.39 1562.25 98.08 1563.1 98.08C1563.95 98.08 1564.64 97.39 1564.64 96.54C1564.64 95.69 1563.95 95 1563.1 95C1562.25 95.01 1561.56 95.69 1561.56 96.54Z" fill="#6DADF8"/>
<path d="M1604.31 85.66C1602.47 85.66 1600.98 84.1691 1600.98 82.33C1600.98 80.4909 1602.47 79 1604.31 79C1606.15 79 1607.64 80.4909 1607.64 82.33C1607.64 84.1691 1606.15 85.66 1604.31 85.66Z" fill="#6DADF8"/>
<path d="M1471.31 6.66C1469.47 6.66 1467.98 5.16913 1467.98 3.33002C1467.98 1.49091 1469.47 0 1471.31 0C1473.15 0 1474.64 1.49091 1474.64 3.33002C1474.64 5.16913 1473.15 6.66 1471.31 6.66Z" fill="#6DADF8"/>
<path d="M1513.47 53L1525.64 61.53L1511 69.1L1513.47 53Z" fill="#FF7E3D"/>
<path d="M1037.29 30.7257C1036.82 28.9484 1034.99 27.8949 1033.22 28.3711C1031.44 28.8473 1030.39 30.6722 1030.86 32.4495C1031.34 34.2268 1033.16 35.2804 1034.94 34.8041C1036.72 34.3279 1037.77 32.503 1037.29 30.7257Z" fill="#FAA7A7"/>
<path d="M1201.78 3.21657C1201.3 1.43927 1199.48 0.385662 1197.7 0.861889C1195.92 1.33812 1194.87 3.16301 1195.35 4.94031C1195.82 6.71761 1197.65 7.77122 1199.43 7.29499C1201.2 6.81876 1202.26 4.99388 1201.78 3.21657Z" fill="#FAA7A7"/>
<path d="M1151.39 34.0799L1159.31 28.0862L1167.01 40.8275L1151.39 34.0799Z" fill="#FF7E3D"/>
<path d="M1091.11 91.1471L1093.39 70.762L1127.63 87.6147L1091.11 91.1471Z" fill="url(#paint3_linear)"/>
<path d="M599.562 37.54C599.562 40.6 602.042 43.08 605.102 43.08C608.162 43.08 610.642 40.6 610.642 37.54C610.642 34.48 608.162 32 605.102 32C602.042 32 599.562 34.48 599.562 37.54Z" fill="url(#paint4_linear)"/>
<path d="M560.312 22.66C558.473 22.66 556.982 21.1691 556.982 19.33C556.982 17.4908 558.473 16 560.312 16C562.151 16 563.642 17.4908 563.642 19.33C563.642 21.1691 562.151 22.66 560.312 22.66Z" fill="#FAA7A7"/>
<path d="M740.562 96.54C740.562 97.39 741.252 98.08 742.102 98.08C742.952 98.08 743.642 97.39 743.642 96.54C743.642 95.69 742.952 95 742.102 95C741.252 95.01 740.562 95.69 740.562 96.54Z" fill="#6DADF8"/>
<path d="M783.312 85.66C781.472 85.66 779.982 84.1691 779.982 82.33C779.982 80.4909 781.472 79 783.312 79C785.151 79 786.642 80.4909 786.642 82.33C786.642 84.1691 785.151 85.66 783.312 85.66Z" fill="#6DADF8"/>
<path d="M650.312 6.66C648.472 6.66 646.982 5.16913 646.982 3.33002C646.982 1.49091 648.472 0 650.312 0C652.151 0 653.642 1.49091 653.642 3.33002C653.642 5.16913 652.151 6.66 650.312 6.66Z" fill="#6DADF8"/>
<path d="M692.472 53L704.642 61.53L690.002 69.1L692.472 53Z" fill="#FF7E3D"/>
<path d="M216.295 30.7257C215.819 28.9484 213.994 27.8949 212.216 28.3711C210.439 28.8473 209.386 30.6722 209.862 32.4495C210.338 34.2268 212.163 35.2804 213.94 34.8041C215.717 34.3279 216.771 32.503 216.295 30.7257Z" fill="#FAA7A7"/>
<path d="M380.78 3.21657C380.303 1.43927 378.479 0.385662 376.701 0.861889C374.924 1.33812 373.87 3.16301 374.347 4.94031C374.823 6.71761 376.648 7.77122 378.425 7.29499C380.202 6.81876 381.256 4.99388 380.78 3.21657Z" fill="#FAA7A7"/>
<path d="M330.391 34.0799L338.309 28.0862L346.009 40.8275L330.391 34.0799Z" fill="#FF7E3D"/>
<path d="M270.107 91.1471L272.388 70.762L306.627 87.6147L270.107 91.1471Z" fill="url(#paint5_linear)"/>
<path d="M1219.56 60.54C1219.56 57.48 1222.04 54.9999 1225.1 54.9999C1228.16 54.9999 1230.64 57.48 1230.64 60.54C1230.64 63.6 1228.16 66.08 1225.1 66.08C1222.04 66.08 1219.56 63.6 1219.56 60.54Z" fill="url(#paint6_linear)"/>
<path d="M1180.31 75.42C1178.47 75.42 1176.98 76.9109 1176.98 78.75C1176.98 80.5891 1178.47 82.08 1180.31 82.08C1182.15 82.08 1183.64 80.5891 1183.64 78.75C1183.64 76.9109 1182.15 75.42 1180.31 75.42Z" fill="#FAA7A7"/>
<path d="M1360.56 1.53998C1360.56 0.689978 1361.25 -3.05176e-05 1362.1 -3.05176e-05C1362.95 -3.05176e-05 1363.64 0.689978 1363.64 1.53998C1363.64 2.38998 1362.95 3.07996 1362.1 3.07996C1361.25 3.06996 1360.56 2.38998 1360.56 1.53998Z" fill="#6DADF8"/>
<path d="M1403.31 12.42C1401.47 12.42 1399.98 13.9108 1399.98 15.7499C1399.98 17.589 1401.47 19.08 1403.31 19.08C1405.15 19.08 1406.64 17.589 1406.64 15.7499C1406.64 13.9108 1405.15 12.42 1403.31 12.42Z" fill="#6DADF8"/>
<path d="M1270.31 91.42C1268.47 91.42 1266.98 92.9108 1266.98 94.7499C1266.98 96.589 1268.47 98.08 1270.31 98.08C1272.15 98.08 1273.64 96.589 1273.64 94.7499C1273.64 92.9108 1272.15 91.42 1270.31 91.42Z" fill="#6DADF8"/>
<path d="M1312.47 45.08L1324.64 36.55L1310 28.9799L1312.47 45.08Z" fill="#FF7E3D"/>
<path d="M836.295 67.3542C835.819 69.1315 833.994 70.1851 832.216 69.7089C830.439 69.2326 829.386 67.4078 829.862 65.6305C830.338 63.8532 832.163 62.7996 833.94 63.2758C835.717 63.752 836.771 65.5769 836.295 67.3542Z" fill="#FAA7A7"/>
<path d="M1000.78 94.8634C1000.3 96.6407 998.479 97.6943 996.701 97.2181C994.924 96.7418 993.87 94.9169 994.347 93.1396C994.823 91.3623 996.648 90.3087 998.425 90.785C1000.2 91.2612 1001.26 93.0861 1000.78 94.8634Z" fill="#FAA7A7"/>
<path d="M950.391 64L958.309 69.9937L966.009 57.2525L950.391 64Z" fill="#FF7E3D"/>
<path d="M890.107 6.93286L892.388 27.318L926.627 10.4653L890.107 6.93286Z" fill="url(#paint7_linear)"/>
<defs>
<linearGradient id="paint0_linear" x1="401.634" y1="60.5421" x2="390.562" y2="60.5421" gradientUnits="userSpaceOnUse">
<stop offset="0.0277" stop-color="#FFD24D"/>
<stop offset="0.7154" stop-color="#F6BE56"/>
<stop offset="1" stop-color="#F2B45A"/>
</linearGradient>
<linearGradient id="paint1_linear" x1="59.415" y1="13.24" x2="94.3732" y2="22.607" gradientUnits="userSpaceOnUse">
<stop offset="0.0277" stop-color="#FFD24D"/>
<stop offset="0.7154" stop-color="#FFBE56"/>
<stop offset="1" stop-color="#FFB45A"/>
</linearGradient>
<linearGradient id="paint2_linear" x1="1431.63" y1="37.5369" x2="1420.56" y2="37.5369" gradientUnits="userSpaceOnUse">
<stop offset="0.0277" stop-color="#FFD24D"/>
<stop offset="0.7154" stop-color="#F6BE56"/>
<stop offset="1" stop-color="#F2B45A"/>
</linearGradient>
<linearGradient id="paint3_linear" x1="1089.41" y1="84.839" x2="1124.37" y2="75.472" gradientUnits="userSpaceOnUse">
<stop offset="0.0277" stop-color="#FFD24D"/>
<stop offset="0.7154" stop-color="#FFBE56"/>
<stop offset="1" stop-color="#FFB45A"/>
</linearGradient>
<linearGradient id="paint4_linear" x1="610.634" y1="37.5369" x2="599.562" y2="37.5369" gradientUnits="userSpaceOnUse">
<stop offset="0.0277" stop-color="#FFD24D"/>
<stop offset="0.7154" stop-color="#F6BE56"/>
<stop offset="1" stop-color="#F2B45A"/>
</linearGradient>
<linearGradient id="paint5_linear" x1="268.415" y1="84.839" x2="303.373" y2="75.472" gradientUnits="userSpaceOnUse">
<stop offset="0.0277" stop-color="#FFD24D"/>
<stop offset="0.7154" stop-color="#FFBE56"/>
<stop offset="1" stop-color="#FFB45A"/>
</linearGradient>
<linearGradient id="paint6_linear" x1="1230.63" y1="60.543" x2="1219.56" y2="60.543" gradientUnits="userSpaceOnUse">
<stop offset="0.0277" stop-color="#FFD24D"/>
<stop offset="0.7154" stop-color="#F6BE56"/>
<stop offset="1" stop-color="#F2B45A"/>
</linearGradient>
<linearGradient id="paint7_linear" x1="888.415" y1="13.2409" x2="923.373" y2="22.608" gradientUnits="userSpaceOnUse">
<stop offset="0.0277" stop-color="#FFD24D"/>
<stop offset="0.7154" stop-color="#FFBE56"/>
<stop offset="1" stop-color="#FFB45A"/>
</linearGradient>
</defs>
</svg>
