<svg width="194" height="27" viewBox="0 0 194 27" fill="none" xmlns="http://www.w3.org/2000/svg">
<path d="M176.87 0L160.43 16.36L143.98 0L127.54 16.36L111.1 0L96.6 14.43L82.09 0L65.65 16.36L49.2 0L32.76 16.36L16.32 0L0 16.24L1.82 18.06L16.32 3.63L32.76 19.99L49.2 3.63L65.65 19.99L82.09 3.63L96.6 18.07L111.1 3.63L127.54 19.99L143.98 3.63L160.43 19.99L176.87 3.63L191.38 18.06L193.19 16.24L176.87 0Z" fill="#0B315E"/>
<path d="M176.23 7L159.79 23.36L143.34 7L126.9 23.36L110.46 7L94.6101 22.76L96.5001 24.5L110.46 10.62L126.9 26.98L143.34 10.62L159.79 26.98L176.23 10.62L190.74 25.05L192.55 23.23L176.23 7Z" fill="#FF9D00"/>
<path d="M82.23 7L65.79 23.36L49.34 7L32.9 23.36L16.46 7L0 23.39L1.88995 25.13L16.46 10.62L32.9 26.98L49.34 10.62L65.79 26.98L82.23 10.62L96.5 24.5L98.31 22.68L82.23 7Z" fill="#FF9D00"/>
</svg>
