<svg width="1578" height="99" viewBox="0 0 1578 99" fill="none" xmlns="http://www.w3.org/2000/svg">
<path d="M187.08 37.54C187.08 40.6 184.6 43.08 181.54 43.08C178.48 43.08 176 40.6 176 37.54C176 34.48 178.48 32 181.54 32C184.6 32 187.08 34.48 187.08 37.54Z" fill="url(#paint0_linear)"/>
<path d="M226.33 22.66C228.169 22.66 229.66 21.1691 229.66 19.33C229.66 17.4908 228.169 16 226.33 16C224.491 16 223 17.4908 223 19.33C223 21.1691 224.491 22.66 226.33 22.66Z" fill="#FAA7A7"/>
<path d="M46.08 96.54C46.08 97.39 45.39 98.08 44.54 98.08C43.69 98.08 43 97.39 43 96.54C43 95.69 43.69 95 44.54 95C45.39 95.01 46.08 95.69 46.08 96.54Z" fill="#6DADF8"/>
<path d="M3.33002 85.66C5.16913 85.66 6.66 84.1691 6.66 82.33C6.66 80.4909 5.16913 79 3.33002 79C1.49091 79 0 80.4909 0 82.33C0 84.1691 1.49091 85.66 3.33002 85.66Z" fill="#6DADF8"/>
<path d="M136.33 6.66C138.169 6.66 139.66 5.16913 139.66 3.33002C139.66 1.49091 138.169 0 136.33 0C134.491 0 133 1.49091 133 3.33002C133 5.16913 134.491 6.66 136.33 6.66Z" fill="#6DADF8"/>
<path d="M94.17 53L82 61.53L96.64 69.1L94.17 53Z" fill="#FF7E3D"/>
<path d="M570.347 30.7257C570.823 28.9484 572.648 27.8949 574.425 28.3711C576.202 28.8473 577.256 30.6722 576.78 32.4495C576.304 34.2268 574.479 35.2804 572.701 34.8041C570.924 34.3279 569.871 32.503 570.347 30.7257Z" fill="#FAA7A7"/>
<path d="M405.862 3.21657C406.338 1.43927 408.163 0.385662 409.94 0.861889C411.718 1.33812 412.771 3.16301 412.295 4.94031C411.819 6.71761 409.994 7.77122 408.217 7.29499C406.439 6.81876 405.386 4.99388 405.862 3.21657Z" fill="#FAA7A7"/>
<path d="M456.251 34.0799L448.332 28.0862L440.632 40.8275L456.251 34.0799Z" fill="#FF7E3D"/>
<path d="M516.535 91.1471L514.253 70.762L480.015 87.6147L516.535 91.1471Z" fill="url(#paint1_linear)"/>
<path d="M1390.56 37.54C1390.56 40.6 1393.04 43.08 1396.1 43.08C1399.16 43.08 1401.64 40.6 1401.64 37.54C1401.64 34.48 1399.16 32 1396.1 32C1393.04 32 1390.56 34.48 1390.56 37.54Z" fill="url(#paint2_linear)"/>
<path d="M1351.31 22.66C1349.47 22.66 1347.98 21.1691 1347.98 19.33C1347.98 17.4908 1349.47 16 1351.31 16C1353.15 16 1354.64 17.4908 1354.64 19.33C1354.64 21.1691 1353.15 22.66 1351.31 22.66Z" fill="#FAA7A7"/>
<path d="M1531.56 96.54C1531.56 97.39 1532.25 98.08 1533.1 98.08C1533.95 98.08 1534.64 97.39 1534.64 96.54C1534.64 95.69 1533.95 95 1533.1 95C1532.25 95.01 1531.56 95.69 1531.56 96.54Z" fill="#6DADF8"/>
<path d="M1574.31 85.66C1572.47 85.66 1570.98 84.1691 1570.98 82.33C1570.98 80.4909 1572.47 79 1574.31 79C1576.15 79 1577.64 80.4909 1577.64 82.33C1577.64 84.1691 1576.15 85.66 1574.31 85.66Z" fill="#6DADF8"/>
<path d="M1441.31 6.66C1439.47 6.66 1437.98 5.16913 1437.98 3.33002C1437.98 1.49091 1439.47 0 1441.31 0C1443.15 0 1444.64 1.49091 1444.64 3.33002C1444.64 5.16913 1443.15 6.66 1441.31 6.66Z" fill="#6DADF8"/>
<path d="M1483.47 53L1495.64 61.53L1481 69.1L1483.47 53Z" fill="#FF7E3D"/>
<path d="M1007.29 30.7257C1006.82 28.9484 1004.99 27.8949 1003.22 28.3711C1001.44 28.8473 1000.39 30.6722 1000.86 32.4495C1001.34 34.2268 1003.16 35.2804 1004.94 34.8041C1006.72 34.3279 1007.77 32.503 1007.29 30.7257Z" fill="#FAA7A7"/>
<path d="M1171.78 3.21657C1171.3 1.43927 1169.48 0.385662 1167.7 0.861889C1165.92 1.33812 1164.87 3.16301 1165.35 4.94031C1165.82 6.71761 1167.65 7.77122 1169.43 7.29499C1171.2 6.81876 1172.26 4.99388 1171.78 3.21657Z" fill="#FAA7A7"/>
<path d="M1121.39 34.0799L1129.31 28.0862L1137.01 40.8275L1121.39 34.0799Z" fill="#FF7E3D"/>
<path d="M1061.11 91.1471L1063.39 70.762L1097.63 87.6147L1061.11 91.1471Z" fill="url(#paint3_linear)"/>
<defs>
<linearGradient id="paint0_linear" x1="176.008" y1="37.5369" x2="187.08" y2="37.5369" gradientUnits="userSpaceOnUse">
<stop offset="0.0277" stop-color="#FFD24D"/>
<stop offset="0.7154" stop-color="#F6BE56"/>
<stop offset="1" stop-color="#F2B45A"/>
</linearGradient>
<linearGradient id="paint1_linear" x1="518.227" y1="84.839" x2="483.268" y2="75.472" gradientUnits="userSpaceOnUse">
<stop offset="0.0277" stop-color="#FFD24D"/>
<stop offset="0.7154" stop-color="#FFBE56"/>
<stop offset="1" stop-color="#FFB45A"/>
</linearGradient>
<linearGradient id="paint2_linear" x1="1401.63" y1="37.5369" x2="1390.56" y2="37.5369" gradientUnits="userSpaceOnUse">
<stop offset="0.0277" stop-color="#FFD24D"/>
<stop offset="0.7154" stop-color="#F6BE56"/>
<stop offset="1" stop-color="#F2B45A"/>
</linearGradient>
<linearGradient id="paint3_linear" x1="1059.41" y1="84.839" x2="1094.37" y2="75.472" gradientUnits="userSpaceOnUse">
<stop offset="0.0277" stop-color="#FFD24D"/>
<stop offset="0.7154" stop-color="#FFBE56"/>
<stop offset="1" stop-color="#FFB45A"/>
</linearGradient>
</defs>
</svg>
