<svg width="1440" height="817" viewBox="0 0 1440 817" fill="none" xmlns="http://www.w3.org/2000/svg">
<rect width="1440" height="817" fill="#EDEDED"/>
<g filter="url(#filter0_d)">
<rect x="558" y="57" width="324.199" height="702" fill="white"/>
<path d="M583.071 122.382C583.071 120.173 584.862 118.382 587.071 118.382H690.596C692.805 118.382 694.596 120.173 694.596 122.382V151.234H583.071V122.382Z" fill="#B5BECA"/>
<path d="M746.468 122.382C746.468 120.173 748.259 118.382 750.468 118.382H853.992C856.202 118.382 857.992 120.173 857.992 122.382V151.234H746.468V122.382Z" fill="#E2E6EB"/>
<line x1="558" y1="150.734" x2="882.2" y2="150.734" stroke="#8D8D8D"/>
<path d="M583.072 189.815C583.072 187.606 584.863 185.815 587.072 185.815H690.596C692.806 185.815 694.596 187.606 694.596 189.815V225.906C694.596 228.116 692.806 229.906 690.596 229.906H587.072C584.863 229.906 583.072 228.116 583.072 225.906V189.815Z" fill="#D5D5D6"/>
<path d="M583.071 258.759C583.071 260.968 584.862 262.759 587.071 262.759H853.992C856.202 262.759 857.992 260.968 857.992 258.759V252.062C857.992 249.852 856.202 248.062 853.992 248.062H587.071C584.862 248.062 583.071 249.852 583.071 252.062V258.759Z" fill="#E5E5E5"/>
<path d="M583.071 284.695C583.071 286.904 584.862 288.695 587.071 288.695H669.847C672.056 288.695 673.847 286.904 673.847 284.695V277.998C673.847 275.788 672.056 273.998 669.847 273.998H587.071C584.862 273.998 583.071 275.788 583.071 277.998V284.695Z" fill="#E5E5E5"/>
<path d="M583.071 308.037C583.071 310.246 584.862 312.037 587.071 312.037H669.847C672.056 312.037 673.847 310.246 673.847 308.037V301.34C673.847 299.131 672.056 297.34 669.847 297.34H587.071C584.862 297.34 583.071 299.131 583.071 301.34V308.037Z" fill="#E5E5E5"/>
<path d="M746.468 189.815C746.468 187.606 748.259 185.815 750.468 185.815H853.992C856.202 185.815 857.992 187.606 857.992 189.815V225.906C857.992 228.116 856.202 229.906 853.992 229.906H750.468C748.259 229.906 746.468 228.116 746.468 225.906V189.815Z" fill="#D5D5D6"/>
<path d="M718.803 216.938L720.532 216.938L724.855 210.022L729.609 210.022C730.327 210.022 730.906 209.443 730.906 208.725C730.906 208.008 730.327 207.429 729.609 207.429L724.855 207.429L720.532 200.512L718.803 200.512L720.964 207.429L716.209 207.429L714.912 205.7L713.616 205.7L714.48 208.725L713.616 211.751L714.912 211.751L716.209 210.022L720.964 210.022L718.803 216.938Z" fill="#1E1E1E"/>
<path d="M583.072 363.586C583.072 361.377 584.863 359.586 587.072 359.586H690.596C692.806 359.586 694.596 361.377 694.596 363.586V399.677C694.596 401.886 692.806 403.677 690.596 403.677H587.072C584.863 403.677 583.072 401.886 583.072 399.677V363.586Z" fill="#D5D5D6"/>
<path d="M583.071 432.53C583.071 434.739 584.862 436.53 587.071 436.53H853.992C856.202 436.53 857.992 434.739 857.992 432.53V425.832C857.992 423.623 856.202 421.832 853.992 421.832H587.071C584.862 421.832 583.071 423.623 583.071 425.832V432.53Z" fill="#E5E5E5"/>
<path d="M583.071 458.466C583.071 460.675 584.862 462.466 587.071 462.466H669.847C672.056 462.466 673.847 460.675 673.847 458.466V451.769C673.847 449.559 672.056 447.769 669.847 447.769H587.071C584.862 447.769 583.071 449.559 583.071 451.769V458.466Z" fill="#E5E5E5"/>
<path d="M583.071 481.808C583.071 484.017 584.862 485.808 587.071 485.808H669.847C672.056 485.808 673.847 484.017 673.847 481.808V475.111C673.847 472.902 672.056 471.111 669.847 471.111H587.071C584.862 471.111 583.071 472.902 583.071 475.111V481.808Z" fill="#E5E5E5"/>
<path d="M746.468 363.586C746.468 361.377 748.259 359.586 750.468 359.586H853.992C856.202 359.586 857.992 361.377 857.992 363.586V399.677C857.992 401.886 856.202 403.677 853.992 403.677H750.468C748.259 403.677 746.468 401.886 746.468 399.677V363.586Z" fill="#D5D5D6"/>
<path d="M718.803 389.845L720.532 389.845L724.855 382.929L729.609 382.929C730.327 382.929 730.906 382.349 730.906 381.632C730.906 380.914 730.327 380.335 729.609 380.335L724.855 380.335L720.532 373.419L718.803 373.419L720.964 380.335L716.209 380.335L714.912 378.606L713.616 378.606L714.48 381.632L713.616 384.658L714.912 384.658L716.209 382.929L720.964 382.929L718.803 389.845Z" fill="#1E1E1E"/>
<path d="M583.072 550.325C583.072 548.116 584.863 546.325 587.072 546.325H690.596C692.806 546.325 694.596 548.116 694.596 550.325V586.416C694.596 588.625 692.806 590.416 690.596 590.416H587.072C584.863 590.416 583.072 588.625 583.072 586.416V550.325Z" fill="#D5D5D6"/>
<path d="M583.071 619.268C583.071 621.478 584.862 623.268 587.071 623.268H853.992C856.202 623.268 857.992 621.478 857.992 619.268V612.571C857.992 610.362 856.202 608.571 853.992 608.571H587.071C584.862 608.571 583.071 610.362 583.071 612.571V619.268Z" fill="#E5E5E5"/>
<path d="M583.071 645.204C583.071 647.414 584.862 649.204 587.071 649.204H669.847C672.056 649.204 673.847 647.414 673.847 645.204V638.507C673.847 636.298 672.056 634.507 669.847 634.507H587.071C584.862 634.507 583.071 636.298 583.071 638.507V645.204Z" fill="#E5E5E5"/>
<path d="M583.071 668.547C583.071 670.756 584.862 672.547 587.071 672.547H669.847C672.056 672.547 673.847 670.756 673.847 668.547V661.85C673.847 659.641 672.056 657.85 669.847 657.85H587.071C584.862 657.85 583.071 659.641 583.071 661.85V668.547Z" fill="#E5E5E5"/>
<path d="M746.468 550.325C746.468 548.116 748.259 546.325 750.468 546.325H853.992C856.202 546.325 857.992 548.116 857.992 550.325V586.416C857.992 588.625 856.202 590.416 853.992 590.416H750.468C748.259 590.416 746.468 588.625 746.468 586.416V550.325Z" fill="#D5D5D6"/>
<path d="M718.803 576.584L720.532 576.584L724.855 569.667L729.609 569.667C730.327 569.667 730.906 569.088 730.906 568.371C730.906 567.653 730.327 567.074 729.609 567.074L724.855 567.074L720.532 560.158L718.803 560.158L720.964 567.074L716.209 567.074L714.912 565.345L713.616 565.345L714.48 568.371L713.616 571.397L714.912 571.397L716.209 569.667L720.964 569.667L718.803 576.584Z" fill="#1E1E1E"/>
<line x1="583.071" y1="330.557" x2="882.199" y2="330.557" stroke="#B6B6B6"/>
<line x1="583.071" y1="516.431" x2="882.199" y2="516.431" stroke="#B6B6B6"/>
</g>
<g filter="url(#filter1_d)">
<rect x="101" y="57" width="324.199" height="702" fill="white"/>
<path d="M114.833 108.549C114.833 106.34 116.623 104.549 118.833 104.549H400.451C402.66 104.549 404.451 106.34 404.451 108.549V133.402C404.451 135.611 402.66 137.402 400.451 137.402H118.833C116.623 137.402 114.833 135.611 114.833 133.402V108.549Z" fill="#8D8D8D"/>
<rect x="114.833" y="394.167" width="142.648" height="19.0197" rx="2" fill="#D5D5D6"/>
<path d="M114.833 437.936C114.833 435.727 116.623 433.936 118.833 433.936H364.14C366.35 433.936 368.14 435.727 368.14 437.936V448.956C368.14 451.165 366.35 452.956 364.14 452.956H118.833C116.623 452.956 114.833 451.165 114.833 448.956V437.936Z" fill="#E2E6EB"/>
<path d="M114.833 464.736C114.833 462.527 116.623 460.736 118.833 460.736H211.118C213.327 460.736 215.118 462.527 215.118 464.736V468.84C215.118 471.049 213.327 472.84 211.118 472.84H118.833C116.623 472.84 114.833 471.049 114.833 468.84V464.736Z" fill="#E2E6EB"/>
<path d="M114.833 484.621C114.833 482.412 116.623 480.621 118.833 480.621H253.48C255.689 480.621 257.48 482.412 257.48 484.621V488.724C257.48 490.933 255.689 492.724 253.48 492.724H118.833C116.623 492.724 114.833 490.933 114.833 488.724V484.621Z" fill="#E2E6EB"/>
<path d="M114.833 524.389C114.833 522.18 116.623 520.389 118.833 520.389H364.14C366.35 520.389 368.14 522.18 368.14 524.389V535.409C368.14 537.618 366.35 539.409 364.14 539.409H118.833C116.623 539.409 114.833 537.618 114.833 535.409V524.389Z" fill="#E2E6EB"/>
<path d="M114.833 551.19C114.833 548.981 116.623 547.19 118.833 547.19H211.118C213.327 547.19 215.118 548.981 215.118 551.19V555.293C215.118 557.502 213.327 559.293 211.118 559.293H118.833C116.623 559.293 114.833 557.502 114.833 555.293V551.19Z" fill="#E2E6EB"/>
<path d="M114.833 571.074C114.833 568.865 116.623 567.074 118.833 567.074H253.48C255.689 567.074 257.48 568.865 257.48 571.074V575.177C257.48 577.386 255.689 579.177 253.48 579.177H118.833C116.623 579.177 114.833 577.386 114.833 575.177V571.074Z" fill="#E2E6EB"/>
<path d="M114.833 609.978C114.833 607.769 116.623 605.978 118.833 605.978H364.14C366.35 605.978 368.14 607.769 368.14 609.978V620.997C368.14 623.207 366.35 624.997 364.14 624.997H118.833C116.623 624.997 114.833 623.207 114.833 620.997V609.978Z" fill="#E2E6EB"/>
<path d="M114.833 636.778C114.833 634.569 116.623 632.778 118.833 632.778H211.118C213.327 632.778 215.118 634.569 215.118 636.778V640.882C215.118 643.091 213.327 644.882 211.118 644.882H118.833C116.623 644.882 114.833 643.091 114.833 640.882V636.778Z" fill="#E2E6EB"/>
<path d="M114.833 656.663C114.833 654.453 116.623 652.663 118.833 652.663H253.48C255.689 652.663 257.48 654.453 257.48 656.663V660.766C257.48 662.975 255.689 664.766 253.48 664.766H118.833C116.623 664.766 114.833 662.975 114.833 660.766V656.663Z" fill="#E2E6EB"/>
<path d="M114.833 175.118C114.833 172.909 116.623 171.118 118.833 171.118H206.796C209.005 171.118 210.796 172.909 210.796 175.118V186.138C210.796 188.347 209.005 190.138 206.796 190.138H118.833C116.623 190.138 114.833 188.347 114.833 186.138V175.118Z" fill="#E2E6EB"/>
<path d="M114.833 207.97C114.833 205.761 116.623 203.97 118.833 203.97H206.796C209.005 203.97 210.796 205.761 210.796 207.97V218.99C210.796 221.199 209.005 222.99 206.796 222.99H118.833C116.623 222.99 114.833 221.199 114.833 218.99V207.97Z" fill="#E2E6EB"/>
<path d="M114.833 240.823C114.833 238.613 116.623 236.823 118.833 236.823H206.796C209.005 236.823 210.796 238.613 210.796 240.823V251.842C210.796 254.051 209.005 255.842 206.796 255.842H118.833C116.623 255.842 114.833 254.051 114.833 251.842V240.823Z" fill="#E2E6EB"/>
<path d="M114.833 273.675C114.833 271.466 116.623 269.675 118.833 269.675H206.796C209.005 269.675 210.796 271.466 210.796 273.675V284.695C210.796 286.904 209.005 288.695 206.796 288.695H118.833C116.623 288.695 114.833 286.904 114.833 284.695V273.675Z" fill="#E2E6EB"/>
<path d="M114.833 306.527C114.833 304.318 116.623 302.527 118.833 302.527H206.796C209.005 302.527 210.796 304.318 210.796 306.527V317.547C210.796 319.756 209.005 321.547 206.796 321.547H118.833C116.623 321.547 114.833 319.756 114.833 317.547V306.527Z" fill="#E2E6EB"/>
<path d="M114.833 339.379C114.833 337.17 116.623 335.379 118.833 335.379H206.796C209.005 335.379 210.796 337.17 210.796 339.379V350.399C210.796 352.608 209.005 354.399 206.796 354.399H118.833C116.623 354.399 114.833 352.608 114.833 350.399V339.379Z" fill="#E2E6EB"/>
<path d="M288.604 175.118C288.604 172.909 290.394 171.118 292.604 171.118H400.451C402.66 171.118 404.451 172.909 404.451 175.118V186.138C404.451 188.347 402.66 190.138 400.451 190.138H292.604C290.394 190.138 288.604 188.347 288.604 186.138V175.118Z" fill="#E2E6EB"/>
<path d="M288.604 207.97C288.604 205.761 290.394 203.97 292.604 203.97H400.451C402.66 203.97 404.451 205.761 404.451 207.97V218.99C404.451 221.199 402.66 222.99 400.451 222.99H292.604C290.394 222.99 288.604 221.199 288.604 218.99V207.97Z" fill="#E2E6EB"/>
<path d="M288.604 240.823C288.604 238.613 290.394 236.823 292.604 236.823H400.451C402.66 236.823 404.451 238.613 404.451 240.823V251.842C404.451 254.051 402.66 255.842 400.451 255.842H292.604C290.394 255.842 288.604 254.051 288.604 251.842V240.823Z" fill="#E2E6EB"/>
<path d="M288.604 273.675C288.604 271.466 290.394 269.675 292.604 269.675H400.451C402.66 269.675 404.451 271.466 404.451 273.675V284.695C404.451 286.904 402.66 288.695 400.451 288.695H292.604C290.394 288.695 288.604 286.904 288.604 284.695V273.675Z" fill="#E2E6EB"/>
<path d="M288.604 306.527C288.604 304.318 290.394 302.527 292.604 302.527H400.451C402.66 302.527 404.451 304.318 404.451 306.527V317.547C404.451 319.756 402.66 321.547 400.451 321.547H292.604C290.394 321.547 288.604 319.756 288.604 317.547V306.527Z" fill="#E2E6EB"/>
<path d="M288.604 339.379C288.604 337.17 290.394 335.379 292.604 335.379H400.451C402.66 335.379 404.451 337.17 404.451 339.379V350.399C404.451 352.608 402.66 354.399 400.451 354.399H292.604C290.394 354.399 288.604 352.608 288.604 350.399V339.379Z" fill="#E2E6EB"/>
</g>
<g filter="url(#filter2_d)">
<rect x="1015" y="57" width="324.661" height="703" fill="white"/>
<rect x="1015.43" y="513.69" width="323.796" height="61.4692" rx="3.03017" fill="#D5D5D6" stroke="#3A3A3A" stroke-width="0.865764"/>
<rect x="1053.96" y="108.08" width="246.743" height="36.3621" rx="3.46305" fill="#E2E6EB"/>
<rect x="1053.96" y="173.878" width="246.743" height="36.3621" rx="3.46305" fill="#E2E6EB"/>
<rect x="1053.96" y="239.676" width="246.743" height="36.3621" rx="3.46305" fill="#E2E6EB"/>
<rect x="1053.96" y="371.272" width="246.743" height="36.3621" rx="3.46305" fill="#E2E6EB"/>
<rect x="1053.96" y="305.474" width="246.743" height="36.3621" rx="3.46305" fill="#E2E6EB"/>
<rect x="1053.96" y="437.07" width="246.743" height="36.3621" rx="3.46305" fill="#E2E6EB"/>
<rect x="1053.96" y="680.35" width="246.743" height="48.4828" rx="3.46305" fill="#252D36"/>
<path d="M1117.22 544.161C1117.22 545.126 1117.06 545.969 1116.73 546.691C1116.41 547.408 1115.95 547.956 1115.35 548.334C1114.76 548.713 1114.06 548.902 1113.27 548.902C1112.5 548.902 1111.81 548.713 1111.21 548.334C1110.61 547.951 1110.14 547.408 1109.81 546.704C1109.48 545.996 1109.31 545.178 1109.3 544.249V543.539C1109.3 542.592 1109.47 541.755 1109.79 541.029C1110.12 540.303 1110.59 539.749 1111.19 539.366C1111.79 538.978 1112.48 538.784 1113.26 538.784C1114.05 538.784 1114.74 538.976 1115.34 539.359C1115.94 539.738 1116.41 540.29 1116.73 541.016C1117.06 541.737 1117.22 542.578 1117.22 543.539V544.161ZM1115.93 543.525C1115.93 542.357 1115.69 541.462 1115.23 540.84C1114.76 540.213 1114.1 539.9 1113.26 539.9C1112.44 539.9 1111.79 540.213 1111.32 540.84C1110.85 541.462 1110.61 542.328 1110.59 543.437V544.161C1110.59 545.293 1110.83 546.183 1111.3 546.833C1111.78 547.478 1112.44 547.8 1113.27 547.8C1114.11 547.8 1114.76 547.496 1115.22 546.887C1115.68 546.274 1115.92 545.397 1115.93 544.256V543.525ZM1125.15 545.189C1125.15 546.303 1124.9 547.2 1124.39 547.881C1123.88 548.562 1123.19 548.902 1122.32 548.902C1121.43 548.902 1120.73 548.621 1120.22 548.057V551.581H1118.97V541.449H1120.12L1120.18 542.26C1120.69 541.629 1121.39 541.314 1122.3 541.314C1123.18 541.314 1123.87 541.645 1124.38 542.308C1124.9 542.971 1125.15 543.893 1125.15 545.074V545.189ZM1123.9 545.047C1123.9 544.222 1123.73 543.57 1123.38 543.092C1123.02 542.614 1122.54 542.375 1121.93 542.375C1121.17 542.375 1120.6 542.711 1120.22 543.383V546.88C1120.6 547.547 1121.17 547.881 1121.94 547.881C1122.54 547.881 1123.02 547.644 1123.37 547.171C1123.73 546.693 1123.9 545.985 1123.9 545.047ZM1128.45 539.677V541.449H1129.82V542.416H1128.45V546.955C1128.45 547.248 1128.51 547.469 1128.63 547.617C1128.75 547.762 1128.96 547.834 1129.25 547.834C1129.4 547.834 1129.6 547.807 1129.85 547.753V548.767C1129.52 548.857 1129.2 548.902 1128.89 548.902C1128.33 548.902 1127.91 548.733 1127.62 548.395C1127.34 548.057 1127.2 547.577 1127.2 546.955V542.416H1125.87V541.449H1127.2V539.677H1128.45ZM1136.08 548.767H1134.83V541.449H1136.08V548.767ZM1134.73 539.508C1134.73 539.305 1134.79 539.133 1134.91 538.994C1135.03 538.854 1135.22 538.784 1135.46 538.784C1135.71 538.784 1135.89 538.854 1136.02 538.994C1136.14 539.133 1136.21 539.305 1136.21 539.508C1136.21 539.711 1136.14 539.88 1136.02 540.015C1135.89 540.15 1135.71 540.218 1135.46 540.218C1135.22 540.218 1135.03 540.15 1134.91 540.015C1134.79 539.88 1134.73 539.711 1134.73 539.508ZM1139.27 541.449L1139.31 542.369C1139.87 541.665 1140.6 541.314 1141.5 541.314C1143.05 541.314 1143.83 542.186 1143.84 543.931V548.767H1142.59V543.924C1142.59 543.397 1142.47 543.007 1142.23 542.754C1141.99 542.502 1141.62 542.375 1141.12 542.375C1140.72 542.375 1140.36 542.484 1140.06 542.7C1139.75 542.917 1139.51 543.201 1139.34 543.552V548.767H1138.09V541.449H1139.27ZM1149.78 548.767V542.416H1148.63V541.449H1149.78V540.698C1149.78 539.913 1149.99 539.307 1150.41 538.879C1150.83 538.45 1151.42 538.236 1152.19 538.236C1152.48 538.236 1152.76 538.274 1153.05 538.351L1152.98 539.366C1152.77 539.325 1152.54 539.305 1152.3 539.305C1151.9 539.305 1151.59 539.424 1151.36 539.663C1151.14 539.898 1151.03 540.236 1151.03 540.678V541.449H1152.6V542.416H1151.03V548.767H1149.78ZM1153.65 545.04C1153.65 544.323 1153.79 543.679 1154.07 543.106C1154.35 542.533 1154.75 542.091 1155.25 541.78C1155.75 541.469 1156.33 541.314 1156.97 541.314C1157.97 541.314 1158.77 541.658 1159.39 542.348C1160 543.038 1160.31 543.956 1160.31 545.101V545.189C1160.31 545.902 1160.18 546.542 1159.9 547.11C1159.63 547.674 1159.24 548.113 1158.73 548.429C1158.23 548.745 1157.64 548.902 1156.99 548.902C1155.99 548.902 1155.19 548.558 1154.57 547.868C1153.96 547.178 1153.65 546.265 1153.65 545.128V545.04ZM1154.91 545.189C1154.91 546.001 1155.1 546.652 1155.47 547.144C1155.85 547.635 1156.35 547.881 1156.99 547.881C1157.62 547.881 1158.13 547.633 1158.5 547.137C1158.87 546.637 1159.06 545.938 1159.06 545.04C1159.06 544.238 1158.87 543.588 1158.49 543.092C1158.11 542.592 1157.6 542.342 1156.97 542.342C1156.35 542.342 1155.86 542.587 1155.48 543.079C1155.1 543.57 1154.91 544.274 1154.91 545.189ZM1165.42 542.572C1165.23 542.54 1165.03 542.524 1164.8 542.524C1163.98 542.524 1163.43 542.874 1163.13 543.573V548.767H1161.88V541.449H1163.1L1163.12 542.294C1163.53 541.64 1164.11 541.314 1164.87 541.314C1165.11 541.314 1165.29 541.345 1165.42 541.408V542.572ZM1176.21 545.189C1176.21 546.307 1175.95 547.207 1175.44 547.888C1174.92 548.564 1174.23 548.902 1173.37 548.902C1172.44 548.902 1171.73 548.576 1171.22 547.922L1171.16 548.767H1170.01V538.378H1171.26V542.254C1171.77 541.627 1172.47 541.314 1173.35 541.314C1174.24 541.314 1174.94 541.649 1175.44 542.321C1175.95 542.993 1176.21 543.913 1176.21 545.081V545.189ZM1174.96 545.047C1174.96 544.195 1174.79 543.537 1174.46 543.072C1174.13 542.608 1173.66 542.375 1173.04 542.375C1172.22 542.375 1171.62 542.759 1171.26 543.525V546.691C1171.65 547.457 1172.24 547.841 1173.06 547.841C1173.66 547.841 1174.12 547.608 1174.46 547.144C1174.79 546.679 1174.96 545.981 1174.96 545.047ZM1182.31 548.767C1182.24 548.623 1182.18 548.366 1182.13 547.996C1181.55 548.6 1180.86 548.902 1180.05 548.902C1179.33 548.902 1178.74 548.7 1178.27 548.294C1177.81 547.883 1177.58 547.365 1177.58 546.738C1177.58 545.976 1177.87 545.385 1178.45 544.966C1179.03 544.542 1179.84 544.33 1180.9 544.33H1182.11V543.755C1182.11 543.318 1181.98 542.971 1181.72 542.714C1181.46 542.452 1181.07 542.321 1180.56 542.321C1180.12 542.321 1179.74 542.434 1179.44 542.66C1179.14 542.885 1178.99 543.158 1178.99 543.478H1177.73C1177.73 543.113 1177.86 542.761 1178.12 542.423C1178.38 542.08 1178.73 541.81 1179.17 541.611C1179.62 541.413 1180.11 541.314 1180.64 541.314C1181.48 541.314 1182.14 541.525 1182.62 541.949C1183.1 542.369 1183.35 542.948 1183.36 543.688V547.056C1183.36 547.728 1183.45 548.262 1183.62 548.659V548.767H1182.31ZM1180.23 547.814C1180.62 547.814 1181 547.712 1181.35 547.509C1181.7 547.306 1181.95 547.042 1182.11 546.718V545.216H1181.13C1179.6 545.216 1178.83 545.665 1178.83 546.562C1178.83 546.955 1178.96 547.261 1179.22 547.482C1179.49 547.703 1179.82 547.814 1180.23 547.814ZM1185.03 545.047C1185.03 543.906 1185.29 543 1185.82 542.328C1186.35 541.652 1187.05 541.314 1187.92 541.314C1188.81 541.314 1189.51 541.629 1190.01 542.26L1190.07 541.449H1191.21V548.591C1191.21 549.538 1190.93 550.285 1190.36 550.83C1189.81 551.376 1189.05 551.649 1188.11 551.649C1187.58 551.649 1187.06 551.536 1186.56 551.31C1186.05 551.085 1185.67 550.776 1185.4 550.384L1186.05 549.633C1186.59 550.296 1187.24 550.627 1188.02 550.627C1188.63 550.627 1189.1 550.456 1189.44 550.113C1189.78 549.771 1189.95 549.288 1189.95 548.666V548.037C1189.45 548.614 1188.77 548.902 1187.9 548.902C1187.05 548.902 1186.35 548.558 1185.82 547.868C1185.29 547.178 1185.03 546.238 1185.03 545.047ZM1186.29 545.189C1186.29 546.014 1186.45 546.664 1186.79 547.137C1187.13 547.606 1187.6 547.841 1188.21 547.841C1189 547.841 1189.58 547.482 1189.95 546.765V543.424C1189.57 542.725 1188.99 542.375 1188.23 542.375C1187.62 542.375 1187.14 542.612 1186.8 543.086C1186.46 543.559 1186.29 544.26 1186.29 545.189ZM1192.81 545.047C1192.81 543.906 1193.07 543 1193.6 542.328C1194.13 541.652 1194.82 541.314 1195.69 541.314C1196.59 541.314 1197.28 541.629 1197.78 542.26L1197.85 541.449H1198.99V548.591C1198.99 549.538 1198.71 550.285 1198.14 550.83C1197.58 551.376 1196.83 551.649 1195.88 551.649C1195.36 551.649 1194.84 551.536 1194.33 551.31C1193.83 551.085 1193.44 550.776 1193.18 550.384L1193.83 549.633C1194.36 550.296 1195.02 550.627 1195.8 550.627C1196.4 550.627 1196.88 550.456 1197.22 550.113C1197.56 549.771 1197.73 549.288 1197.73 548.666V548.037C1197.23 548.614 1196.55 548.902 1195.68 548.902C1194.82 548.902 1194.13 548.558 1193.6 547.868C1193.07 547.178 1192.81 546.238 1192.81 545.047ZM1194.06 545.189C1194.06 546.014 1194.23 546.664 1194.57 547.137C1194.91 547.606 1195.38 547.841 1195.99 547.841C1196.78 547.841 1197.36 547.482 1197.73 546.765V543.424C1197.35 542.725 1196.77 542.375 1196.01 542.375C1195.4 542.375 1194.92 542.612 1194.58 543.086C1194.24 543.559 1194.06 544.26 1194.06 545.189ZM1205.4 548.767C1205.33 548.623 1205.27 548.366 1205.22 547.996C1204.64 548.6 1203.95 548.902 1203.14 548.902C1202.42 548.902 1201.83 548.7 1201.36 548.294C1200.9 547.883 1200.67 547.365 1200.67 546.738C1200.67 545.976 1200.96 545.385 1201.54 544.966C1202.12 544.542 1202.94 544.33 1203.99 544.33H1205.2V543.755C1205.2 543.318 1205.07 542.971 1204.81 542.714C1204.55 542.452 1204.16 542.321 1203.66 542.321C1203.21 542.321 1202.83 542.434 1202.53 542.66C1202.23 542.885 1202.08 543.158 1202.08 543.478H1200.82C1200.82 543.113 1200.95 542.761 1201.21 542.423C1201.47 542.08 1201.82 541.81 1202.26 541.611C1202.71 541.413 1203.2 541.314 1203.73 541.314C1204.57 541.314 1205.23 541.525 1205.71 541.949C1206.19 542.369 1206.44 542.948 1206.46 543.688V547.056C1206.46 547.728 1206.54 548.262 1206.71 548.659V548.767H1205.4ZM1203.32 547.814C1203.72 547.814 1204.09 547.712 1204.44 547.509C1204.79 547.306 1205.05 547.042 1205.2 546.718V545.216H1204.22C1202.69 545.216 1201.92 545.665 1201.92 546.562C1201.92 546.955 1202.05 547.261 1202.32 547.482C1202.58 547.703 1202.91 547.814 1203.32 547.814ZM1208.12 545.047C1208.12 543.906 1208.38 543 1208.91 542.328C1209.44 541.652 1210.14 541.314 1211.01 541.314C1211.9 541.314 1212.6 541.629 1213.1 542.26L1213.16 541.449H1214.3V548.591C1214.3 549.538 1214.02 550.285 1213.46 550.83C1212.9 551.376 1212.14 551.649 1211.2 551.649C1210.67 551.649 1210.15 551.536 1209.65 551.31C1209.14 551.085 1208.76 550.776 1208.49 550.384L1209.14 549.633C1209.68 550.296 1210.33 550.627 1211.11 550.627C1211.72 550.627 1212.19 550.456 1212.53 550.113C1212.87 549.771 1213.04 549.288 1213.04 548.666V548.037C1212.54 548.614 1211.86 548.902 1210.99 548.902C1210.14 548.902 1209.44 548.558 1208.91 547.868C1208.38 547.178 1208.12 546.238 1208.12 545.047ZM1209.38 545.189C1209.38 546.014 1209.55 546.664 1209.88 547.137C1210.22 547.606 1210.7 547.841 1211.31 547.841C1212.09 547.841 1212.67 547.482 1213.04 546.765V543.424C1212.66 542.725 1212.09 542.375 1211.32 542.375C1210.71 542.375 1210.23 542.612 1209.89 543.086C1209.55 543.559 1209.38 544.26 1209.38 545.189ZM1219.23 548.902C1218.24 548.902 1217.43 548.578 1216.81 547.929C1216.19 547.275 1215.88 546.402 1215.88 545.311V545.081C1215.88 544.355 1216.01 543.708 1216.29 543.14C1216.57 542.567 1216.96 542.121 1217.45 541.801C1217.95 541.476 1218.49 541.314 1219.08 541.314C1220.03 541.314 1220.77 541.627 1221.3 542.254C1221.82 542.88 1222.09 543.778 1222.09 544.946V545.466H1217.13C1217.15 546.188 1217.36 546.772 1217.76 547.218C1218.16 547.66 1218.68 547.881 1219.3 547.881C1219.74 547.881 1220.12 547.791 1220.42 547.611C1220.73 547.43 1221 547.191 1221.23 546.894L1221.99 547.489C1221.38 548.431 1220.46 548.902 1219.23 548.902ZM1219.08 542.342C1218.57 542.342 1218.15 542.526 1217.81 542.896C1217.46 543.261 1217.25 543.776 1217.17 544.438H1220.84V544.344C1220.8 543.708 1220.63 543.216 1220.32 542.869C1220.01 542.517 1219.6 542.342 1219.08 542.342ZM1228.67 539.677V541.449H1230.04V542.416H1228.67V546.955C1228.67 547.248 1228.74 547.469 1228.86 547.617C1228.98 547.762 1229.19 547.834 1229.48 547.834C1229.62 547.834 1229.82 547.807 1230.07 547.753V548.767C1229.75 548.857 1229.43 548.902 1229.11 548.902C1228.55 548.902 1228.13 548.733 1227.85 548.395C1227.57 548.057 1227.42 547.577 1227.42 546.955V542.416H1226.09V541.449H1227.42V539.677H1228.67ZM1235.05 542.572C1234.86 542.54 1234.65 542.524 1234.43 542.524C1233.61 542.524 1233.05 542.874 1232.76 543.573V548.767H1231.51V541.449H1232.73L1232.75 542.294C1233.16 541.64 1233.74 541.314 1234.49 541.314C1234.73 541.314 1234.92 541.345 1235.05 541.408V542.572ZM1240.45 548.767C1240.38 548.623 1240.32 548.366 1240.27 547.996C1239.69 548.6 1239 548.902 1238.19 548.902C1237.47 548.902 1236.88 548.7 1236.41 548.294C1235.95 547.883 1235.72 547.365 1235.72 546.738C1235.72 545.976 1236.01 545.385 1236.59 544.966C1237.17 544.542 1237.99 544.33 1239.04 544.33H1240.25V543.755C1240.25 543.318 1240.12 542.971 1239.86 542.714C1239.6 542.452 1239.21 542.321 1238.71 542.321C1238.26 542.321 1237.88 542.434 1237.58 542.66C1237.28 542.885 1237.13 543.158 1237.13 543.478H1235.87C1235.87 543.113 1236 542.761 1236.26 542.423C1236.52 542.08 1236.87 541.81 1237.31 541.611C1237.76 541.413 1238.25 541.314 1238.78 541.314C1239.62 541.314 1240.28 541.525 1240.76 541.949C1241.24 542.369 1241.49 542.948 1241.51 543.688V547.056C1241.51 547.728 1241.59 548.262 1241.76 548.659V548.767H1240.45ZM1238.37 547.814C1238.77 547.814 1239.14 547.712 1239.49 547.509C1239.84 547.306 1240.1 547.042 1240.25 546.718V545.216H1239.27C1237.74 545.216 1236.97 545.665 1236.97 546.562C1236.97 546.955 1237.1 547.261 1237.37 547.482C1237.63 547.703 1237.96 547.814 1238.37 547.814ZM1246.4 547.881C1246.85 547.881 1247.24 547.746 1247.57 547.475C1247.91 547.205 1248.09 546.867 1248.13 546.461H1249.31C1249.29 546.88 1249.14 547.279 1248.88 547.658C1248.61 548.037 1248.26 548.339 1247.81 548.564C1247.37 548.79 1246.9 548.902 1246.4 548.902C1245.41 548.902 1244.61 548.571 1244.02 547.908C1243.44 547.241 1243.14 546.33 1243.14 545.176V544.966C1243.14 544.254 1243.27 543.62 1243.53 543.065C1243.8 542.511 1244.17 542.08 1244.66 541.773C1245.15 541.467 1245.73 541.314 1246.4 541.314C1247.22 541.314 1247.9 541.559 1248.44 542.051C1248.98 542.542 1249.27 543.18 1249.31 543.965H1248.13C1248.09 543.491 1247.91 543.104 1247.59 542.802C1247.27 542.495 1246.87 542.342 1246.4 542.342C1245.76 542.342 1245.27 542.572 1244.91 543.032C1244.57 543.487 1244.39 544.148 1244.39 545.013V545.25C1244.39 546.093 1244.57 546.743 1244.91 547.198C1245.26 547.653 1245.76 547.881 1246.4 547.881ZM1252.76 545.379L1251.98 546.197V548.767H1250.72V538.378H1251.98V544.662L1252.65 543.857L1254.92 541.449H1256.45L1253.6 544.506L1256.78 548.767H1255.31L1252.76 545.379ZM1259.1 548.767H1257.85V541.449H1259.1V548.767ZM1257.75 539.508C1257.75 539.305 1257.81 539.133 1257.93 538.994C1258.05 538.854 1258.24 538.784 1258.48 538.784C1258.73 538.784 1258.91 538.854 1259.04 538.994C1259.16 539.133 1259.23 539.305 1259.23 539.508C1259.23 539.711 1259.16 539.88 1259.04 540.015C1258.91 540.15 1258.73 540.218 1258.48 540.218C1258.24 540.218 1258.05 540.15 1257.93 540.015C1257.81 539.88 1257.75 539.711 1257.75 539.508ZM1262.29 541.449L1262.33 542.369C1262.89 541.665 1263.62 541.314 1264.52 541.314C1266.07 541.314 1266.85 542.186 1266.86 543.931V548.767H1265.61V543.924C1265.61 543.397 1265.49 543.007 1265.25 542.754C1265.01 542.502 1264.64 542.375 1264.14 542.375C1263.74 542.375 1263.38 542.484 1263.08 542.7C1262.77 542.917 1262.53 543.201 1262.36 543.552V548.767H1261.11V541.449H1262.29ZM1268.45 545.047C1268.45 543.906 1268.72 543 1269.24 542.328C1269.77 541.652 1270.47 541.314 1271.34 541.314C1272.23 541.314 1272.93 541.629 1273.43 542.26L1273.49 541.449H1274.63V548.591C1274.63 549.538 1274.35 550.285 1273.79 550.83C1273.23 551.376 1272.48 551.649 1271.53 551.649C1271 551.649 1270.49 551.536 1269.98 551.31C1269.48 551.085 1269.09 550.776 1268.82 550.384L1269.47 549.633C1270.01 550.296 1270.67 550.627 1271.44 550.627C1272.05 550.627 1272.52 550.456 1272.86 550.113C1273.2 549.771 1273.38 549.288 1273.38 548.666V548.037C1272.88 548.614 1272.19 548.902 1271.33 548.902C1270.47 548.902 1269.78 548.558 1269.24 547.868C1268.72 547.178 1268.45 546.238 1268.45 545.047ZM1269.71 545.189C1269.71 546.014 1269.88 546.664 1270.22 547.137C1270.56 547.606 1271.03 547.841 1271.64 547.841C1272.43 547.841 1273.01 547.482 1273.38 546.765V543.424C1272.99 542.725 1272.42 542.375 1271.65 542.375C1271.04 542.375 1270.57 542.612 1270.22 543.086C1269.88 543.559 1269.71 544.26 1269.71 545.189Z" fill="#4A4A4A"/>
<rect x="1053.96" y="526.244" width="36.3621" height="36.3621" rx="3.46305" fill="white"/>
<path d="M1067.09 550.28L1063.03 545.803C1062.36 544.996 1061.2 545.048 1060.52 545.772C1059.83 546.478 1059.88 547.616 1060.51 548.31L1065.82 554.17C1066.19 554.58 1066.69 554.726 1067.09 554.726C1067.55 554.726 1068.01 554.568 1068.37 554.17L1068.37 554.169L1083.76 537.146C1084.44 536.446 1084.4 535.323 1083.79 534.628C1083.11 533.812 1081.93 533.87 1081.26 534.611L1081.26 534.612L1067.09 550.28Z" fill="#40F488" stroke="#32DF77" stroke-width="1.73153"/>
</g>
<defs>
<filter id="filter0_d" x="533" y="37" width="374.199" height="752" filterUnits="userSpaceOnUse" color-interpolation-filters="sRGB">
<feFlood flood-opacity="0" result="BackgroundImageFix"/>
<feColorMatrix in="SourceAlpha" type="matrix" values="0 0 0 0 0 0 0 0 0 0 0 0 0 0 0 0 0 0 127 0"/>
<feOffset dy="5"/>
<feGaussianBlur stdDeviation="12.5"/>
<feColorMatrix type="matrix" values="0 0 0 0 0 0 0 0 0 0 0 0 0 0 0 0 0 0 0.11 0"/>
<feBlend mode="normal" in2="BackgroundImageFix" result="effect1_dropShadow"/>
<feBlend mode="normal" in="SourceGraphic" in2="effect1_dropShadow" result="shape"/>
</filter>
<filter id="filter1_d" x="76" y="37" width="374.199" height="752" filterUnits="userSpaceOnUse" color-interpolation-filters="sRGB">
<feFlood flood-opacity="0" result="BackgroundImageFix"/>
<feColorMatrix in="SourceAlpha" type="matrix" values="0 0 0 0 0 0 0 0 0 0 0 0 0 0 0 0 0 0 127 0"/>
<feOffset dy="5"/>
<feGaussianBlur stdDeviation="12.5"/>
<feColorMatrix type="matrix" values="0 0 0 0 0 0 0 0 0 0 0 0 0 0 0 0 0 0 0.11 0"/>
<feBlend mode="normal" in2="BackgroundImageFix" result="effect1_dropShadow"/>
<feBlend mode="normal" in="SourceGraphic" in2="effect1_dropShadow" result="shape"/>
</filter>
<filter id="filter2_d" x="990" y="37" width="374.661" height="753" filterUnits="userSpaceOnUse" color-interpolation-filters="sRGB">
<feFlood flood-opacity="0" result="BackgroundImageFix"/>
<feColorMatrix in="SourceAlpha" type="matrix" values="0 0 0 0 0 0 0 0 0 0 0 0 0 0 0 0 0 0 127 0"/>
<feOffset dy="5"/>
<feGaussianBlur stdDeviation="12.5"/>
<feColorMatrix type="matrix" values="0 0 0 0 0 0 0 0 0 0 0 0 0 0 0 0 0 0 0.11 0"/>
<feBlend mode="normal" in2="BackgroundImageFix" result="effect1_dropShadow"/>
<feBlend mode="normal" in="SourceGraphic" in2="effect1_dropShadow" result="shape"/>
</filter>
</defs>
</svg>
