<svg width="1440" height="817" viewBox="0 0 1440 817" fill="none" xmlns="http://www.w3.org/2000/svg">
<rect width="1440" height="817" fill="#EDEDED"/>
<g filter="url(#filter0_d)">
<rect width="315" height="682" transform="translate(96 67)" fill="white"/>
<path d="M377.394 167.788H129.606C125.427 167.788 122.04 172.917 122.04 179.243V394.025C122.04 400.352 125.427 405.48 129.606 405.48H377.394C381.573 405.48 384.96 400.352 384.96 394.025V179.243C384.96 172.917 381.573 167.788 377.394 167.788Z" fill="#AAB0BB"/>
<path d="M341.28 346.439V225.15C341.266 220.557 339.215 216.157 335.577 212.91C331.939 209.663 327.009 207.833 321.864 207.82H185.976C180.831 207.833 175.901 209.663 172.263 212.91C168.625 216.157 166.574 220.557 166.56 225.15V346.439C166.574 351.031 168.625 355.432 172.263 358.679C175.901 361.926 180.831 363.756 185.976 363.769H321.864C327.009 363.756 331.939 361.926 335.577 358.679C339.215 355.432 341.266 351.031 341.28 346.439V346.439ZM219.948 298.792L244.212 324.869L278.184 285.794L321.864 337.779H185.976L219.948 298.792Z" fill="white"/>
<rect x="120.86" y="442.936" width="263.6" height="35.9556" rx="3.5" fill="white" stroke="#E2E6EB"/>
<rect x="120.86" y="496.69" width="263.6" height="35.9557" rx="3.5" fill="white" stroke="#E2E6EB"/>
<rect x="120.36" y="560.862" width="264.6" height="41.9951" rx="6" fill="#C4C4C4"/>
<path d="M135.12 467.515V456.14H138.839C140.073 456.14 141.001 456.395 141.62 456.905C142.245 457.416 142.558 458.171 142.558 459.171C142.558 459.702 142.407 460.174 142.105 460.585C141.803 460.991 141.391 461.306 140.87 461.53C141.485 461.702 141.969 462.03 142.323 462.515C142.683 462.994 142.863 463.567 142.863 464.233C142.863 465.254 142.532 466.056 141.87 466.64C141.209 467.223 140.274 467.515 139.066 467.515H135.12ZM136.62 462.194V466.288H139.097C139.795 466.288 140.344 466.108 140.745 465.749C141.152 465.384 141.355 464.884 141.355 464.249C141.355 462.879 140.61 462.194 139.12 462.194H136.62ZM136.62 460.991H138.886C139.542 460.991 140.066 460.827 140.456 460.499C140.852 460.171 141.05 459.726 141.05 459.163C141.05 458.538 140.868 458.085 140.503 457.804C140.139 457.517 139.584 457.374 138.839 457.374H136.62V460.991ZM144.48 463.21C144.48 462.382 144.641 461.637 144.964 460.976C145.292 460.314 145.745 459.804 146.323 459.444C146.907 459.085 147.571 458.905 148.316 458.905C149.467 458.905 150.396 459.304 151.105 460.101C151.818 460.897 152.175 461.957 152.175 463.28V463.382C152.175 464.205 152.016 464.944 151.698 465.601C151.386 466.252 150.935 466.759 150.347 467.124C149.764 467.489 149.092 467.671 148.331 467.671C147.185 467.671 146.256 467.272 145.542 466.476C144.834 465.679 144.48 464.624 144.48 463.312V463.21ZM145.933 463.382C145.933 464.319 146.149 465.072 146.581 465.64C147.019 466.207 147.602 466.491 148.331 466.491C149.066 466.491 149.649 466.205 150.081 465.632C150.514 465.054 150.73 464.246 150.73 463.21C150.73 462.283 150.508 461.533 150.066 460.96C149.628 460.382 149.045 460.093 148.316 460.093C147.602 460.093 147.027 460.377 146.589 460.944C146.152 461.512 145.933 462.325 145.933 463.382ZM153.605 463.21C153.605 462.382 153.766 461.637 154.089 460.976C154.417 460.314 154.87 459.804 155.448 459.444C156.032 459.085 156.696 458.905 157.441 458.905C158.592 458.905 159.521 459.304 160.23 460.101C160.943 460.897 161.3 461.957 161.3 463.28V463.382C161.3 464.205 161.141 464.944 160.823 465.601C160.511 466.252 160.06 466.759 159.472 467.124C158.889 467.489 158.217 467.671 157.456 467.671C156.31 467.671 155.381 467.272 154.667 466.476C153.959 465.679 153.605 464.624 153.605 463.312V463.21ZM155.058 463.382C155.058 464.319 155.274 465.072 155.706 465.64C156.144 466.207 156.727 466.491 157.456 466.491C158.191 466.491 158.774 466.205 159.206 465.632C159.639 465.054 159.855 464.246 159.855 463.21C159.855 462.283 159.633 461.533 159.191 460.96C158.753 460.382 158.17 460.093 157.441 460.093C156.727 460.093 156.152 460.377 155.714 460.944C155.277 461.512 155.058 462.325 155.058 463.382ZM165.472 463.601L164.566 464.546V467.515H163.12V455.515H164.566V462.772L165.339 461.843L167.972 459.062H169.73L166.441 462.593L170.113 467.515H168.417L165.472 463.601ZM172.792 467.515H171.347V459.062H172.792V467.515ZM171.23 456.819C171.23 456.585 171.3 456.387 171.441 456.226C171.587 456.064 171.8 455.983 172.081 455.983C172.363 455.983 172.576 456.064 172.722 456.226C172.868 456.387 172.941 456.585 172.941 456.819C172.941 457.054 172.868 457.249 172.722 457.405C172.576 457.562 172.363 457.64 172.081 457.64C171.8 457.64 171.587 457.562 171.441 457.405C171.3 457.249 171.23 457.054 171.23 456.819ZM176.48 459.062L176.527 460.124C177.172 459.312 178.016 458.905 179.058 458.905C180.844 458.905 181.745 459.913 181.761 461.929V467.515H180.316V461.921C180.31 461.312 180.17 460.861 179.894 460.569C179.623 460.278 179.198 460.132 178.62 460.132C178.152 460.132 177.74 460.257 177.386 460.507C177.032 460.757 176.756 461.085 176.558 461.491V467.515H175.113V459.062H176.48ZM183.597 463.218C183.597 461.9 183.902 460.853 184.511 460.077C185.12 459.296 185.928 458.905 186.933 458.905C187.964 458.905 188.769 459.27 189.347 459.999L189.417 459.062H190.738V467.312C190.738 468.405 190.412 469.267 189.761 469.897C189.115 470.528 188.245 470.843 187.152 470.843C186.542 470.843 185.946 470.713 185.363 470.452C184.779 470.192 184.334 469.835 184.027 469.382L184.777 468.515C185.396 469.28 186.154 469.663 187.05 469.663C187.753 469.663 188.3 469.465 188.691 469.069C189.087 468.674 189.284 468.116 189.284 467.397V466.671C188.706 467.338 187.917 467.671 186.917 467.671C185.928 467.671 185.126 467.272 184.511 466.476C183.902 465.679 183.597 464.593 183.597 463.218ZM185.05 463.382C185.05 464.335 185.245 465.085 185.636 465.632C186.027 466.174 186.573 466.444 187.277 466.444C188.188 466.444 188.857 466.03 189.284 465.202V461.343C188.842 460.535 188.178 460.132 187.292 460.132C186.589 460.132 186.04 460.405 185.644 460.952C185.248 461.499 185.05 462.309 185.05 463.382ZM198.73 467.515H197.23V456.14H198.73V467.515ZM201.48 467.515V456.14H204.691C205.68 456.14 206.555 456.358 207.316 456.796C208.076 457.233 208.662 457.856 209.073 458.663C209.49 459.47 209.701 460.397 209.706 461.444V462.171C209.706 463.244 209.498 464.184 209.081 464.991C208.67 465.799 208.079 466.418 207.308 466.851C206.542 467.283 205.649 467.504 204.628 467.515H201.48ZM202.98 457.374V466.288H204.558C205.714 466.288 206.613 465.929 207.253 465.21C207.899 464.491 208.222 463.468 208.222 462.14V461.476C208.222 460.184 207.917 459.181 207.308 458.468C206.704 457.749 205.844 457.384 204.73 457.374H202.98Z" fill="#585858"/>
<path d="M141.402 518.3H136.636L135.566 521.269H134.019L138.363 509.894H139.675L144.027 521.269H142.488L141.402 518.3ZM137.089 517.065H140.956L139.019 511.745L137.089 517.065ZM146.902 521.269H145.456V512.815H146.902V521.269ZM145.339 510.573C145.339 510.339 145.409 510.141 145.55 509.979C145.696 509.818 145.909 509.737 146.191 509.737C146.472 509.737 146.685 509.818 146.831 509.979C146.977 510.141 147.05 510.339 147.05 510.573C147.05 510.808 146.977 511.003 146.831 511.159C146.685 511.315 146.472 511.394 146.191 511.394C145.909 511.394 145.696 511.315 145.55 511.159C145.409 511.003 145.339 510.808 145.339 510.573ZM153.308 514.112C153.089 514.076 152.852 514.058 152.597 514.058C151.649 514.058 151.006 514.461 150.667 515.269V521.269H149.222V512.815H150.628L150.652 513.792C151.126 513.037 151.797 512.659 152.667 512.659C152.948 512.659 153.162 512.696 153.308 512.769V514.112ZM156.214 521.269H154.769V509.269H156.214V521.269ZM160.105 521.269H158.659V512.815H160.105V521.269ZM158.542 510.573C158.542 510.339 158.613 510.141 158.753 509.979C158.899 509.818 159.113 509.737 159.394 509.737C159.675 509.737 159.889 509.818 160.034 509.979C160.18 510.141 160.253 510.339 160.253 510.573C160.253 510.808 160.18 511.003 160.034 511.159C159.889 511.315 159.675 511.394 159.394 511.394C159.113 511.394 158.899 511.315 158.753 511.159C158.613 511.003 158.542 510.808 158.542 510.573ZM163.792 512.815L163.839 513.878C164.485 513.065 165.329 512.659 166.37 512.659C168.157 512.659 169.058 513.667 169.073 515.683V521.269H167.628V515.675C167.623 515.065 167.482 514.615 167.206 514.323C166.935 514.032 166.511 513.886 165.933 513.886C165.464 513.886 165.053 514.011 164.698 514.261C164.344 514.511 164.068 514.839 163.87 515.245V521.269H162.425V512.815H163.792ZM174.761 521.425C173.615 521.425 172.683 521.05 171.964 520.3C171.245 519.545 170.886 518.537 170.886 517.276V517.011C170.886 516.172 171.045 515.425 171.363 514.769C171.685 514.107 172.133 513.591 172.706 513.222C173.284 512.847 173.909 512.659 174.581 512.659C175.68 512.659 176.534 513.021 177.144 513.745C177.753 514.469 178.058 515.506 178.058 516.854V517.456H172.331C172.352 518.289 172.594 518.964 173.058 519.479C173.527 519.99 174.12 520.245 174.839 520.245C175.35 520.245 175.782 520.141 176.136 519.933C176.49 519.724 176.8 519.448 177.066 519.104L177.948 519.792C177.24 520.881 176.178 521.425 174.761 521.425ZM174.581 513.847C173.998 513.847 173.508 514.06 173.113 514.487C172.717 514.909 172.472 515.503 172.378 516.269H176.613V516.159C176.571 515.425 176.373 514.857 176.019 514.456C175.665 514.05 175.185 513.847 174.581 513.847Z" fill="#585858"/>
<path fill-rule="evenodd" clip-rule="evenodd" d="M359.016 510.964L357.832 512.148L362.872 517.187L367.912 512.148L366.728 510.964L362.872 514.81L359.016 510.964Z" fill="#979797"/>
<rect x="96" y="93.0369" width="315" height="40.3153" fill="white"/>
<rect x="128" y="100" width="230" height="28" rx="6" fill="#C4C4C4"/>
</g>
<g filter="url(#filter1_d)">
<rect width="315" height="682" transform="translate(1028 67)" fill="#F4F4F4"/>
<rect x="1028" y="673.409" width="315" height="75.5911" fill="#414E60"/>
<rect x="1028" y="93.0369" width="315" height="40.3153" fill="#F4F4F4"/>
<rect x="1147.24" y="634.734" width="77.36" height="77.3498" rx="38.6749" fill="#DCEAFF" stroke="white" stroke-width="10"/>
<path d="M1285.74 714.868V718.765H1284.43V708.812H1288.1C1289.19 708.812 1290.04 709.09 1290.66 709.646C1291.28 710.202 1291.59 710.938 1291.59 711.854C1291.59 712.82 1291.28 713.565 1290.68 714.089C1290.08 714.609 1289.21 714.868 1288.09 714.868H1285.74ZM1285.74 713.795H1288.1C1288.8 713.795 1289.34 713.631 1289.71 713.303C1290.09 712.97 1290.27 712.492 1290.27 711.867C1290.27 711.275 1290.09 710.801 1289.71 710.446C1289.34 710.09 1288.83 709.906 1288.18 709.892H1285.74V713.795ZM1296.64 712.503C1296.45 712.471 1296.24 712.455 1296.02 712.455C1295.19 712.455 1294.62 712.809 1294.33 713.515V718.765H1293.06V711.368H1294.29L1294.31 712.223C1294.73 711.562 1295.32 711.232 1296.08 711.232C1296.32 711.232 1296.51 711.264 1296.64 711.327V712.503ZM1297.34 714.998C1297.34 714.274 1297.48 713.622 1297.76 713.043C1298.05 712.464 1298.44 712.018 1298.95 711.703C1299.46 711.389 1300.04 711.232 1300.69 711.232C1301.7 711.232 1302.51 711.58 1303.13 712.278C1303.76 712.975 1304.07 713.902 1304.07 715.06V715.149C1304.07 715.869 1303.93 716.516 1303.65 717.09C1303.38 717.66 1302.98 718.104 1302.47 718.423C1301.96 718.742 1301.37 718.902 1300.71 718.902C1299.7 718.902 1298.89 718.553 1298.27 717.856C1297.65 717.158 1297.34 716.236 1297.34 715.087V714.998ZM1298.61 715.149C1298.61 715.969 1298.8 716.628 1299.17 717.124C1299.56 717.621 1300.07 717.869 1300.71 717.869C1301.35 717.869 1301.86 717.619 1302.24 717.117C1302.62 716.612 1302.8 715.905 1302.8 714.998C1302.8 714.187 1302.61 713.531 1302.22 713.03C1301.84 712.524 1301.33 712.271 1300.69 712.271C1300.07 712.271 1299.56 712.519 1299.18 713.016C1298.8 713.513 1298.61 714.224 1298.61 715.149ZM1306.08 718.765V712.346H1304.91V711.368H1306.08V710.74C1306.08 709.915 1306.31 709.272 1306.78 708.812C1307.26 708.351 1307.92 708.121 1308.79 708.121C1309.3 708.121 1309.94 708.26 1310.72 708.538L1310.51 709.605C1309.94 709.377 1309.4 709.263 1308.88 709.263C1308.34 709.263 1307.95 709.386 1307.71 709.632C1307.47 709.874 1307.35 710.238 1307.35 710.726V711.368H1308.86V712.346H1307.35V718.765H1306.08ZM1311.35 718.765H1310.08V711.368H1311.35V718.765ZM1314.78 718.765H1313.52V708.265H1314.78V718.765ZM1287.3 734.902C1286.3 734.902 1285.48 734.573 1284.85 733.917C1284.22 733.256 1283.91 732.375 1283.91 731.272V731.039C1283.91 730.306 1284.05 729.652 1284.33 729.077C1284.61 728.499 1285 728.047 1285.5 727.724C1286.01 727.396 1286.56 727.232 1287.14 727.232C1288.11 727.232 1288.85 727.548 1289.39 728.182C1289.92 728.815 1290.19 729.722 1290.19 730.903V731.429H1285.17C1285.19 732.158 1285.4 732.748 1285.81 733.199C1286.22 733.646 1286.74 733.869 1287.37 733.869C1287.82 733.869 1288.19 733.778 1288.5 733.596C1288.81 733.414 1289.08 733.172 1289.32 732.871L1290.09 733.473C1289.47 734.425 1288.54 734.902 1287.3 734.902ZM1287.14 728.271C1286.63 728.271 1286.2 728.458 1285.86 728.831C1285.51 729.2 1285.3 729.72 1285.22 730.39H1288.92V730.294C1288.88 729.652 1288.71 729.155 1288.4 728.804C1288.09 728.448 1287.67 728.271 1287.14 728.271Z" fill="#979797"/>
<path d="M1264.42 711.248C1259.53 711.248 1255.55 715.224 1255.55 720.11C1255.55 720.323 1255.73 720.495 1255.94 720.495C1256.15 720.495 1256.32 720.323 1256.32 720.11C1256.32 715.648 1259.95 712.019 1264.42 712.019C1268.88 712.019 1272.51 715.648 1272.51 720.11C1272.51 720.323 1272.68 720.495 1272.89 720.495C1273.11 720.495 1273.28 720.323 1273.28 720.11C1273.28 715.223 1269.3 711.248 1264.42 711.248Z" fill="#979797"/>
<path d="M1264.42 701.953C1262.08 701.953 1260.18 703.854 1260.18 706.191C1260.18 708.529 1262.08 710.43 1264.42 710.43C1266.75 710.43 1268.66 708.529 1268.66 706.191C1268.66 703.854 1266.75 701.953 1264.42 701.953ZM1264.42 709.659C1262.5 709.659 1260.95 708.103 1260.95 706.191C1260.95 704.28 1262.5 702.724 1264.42 702.724C1266.33 702.724 1267.89 704.28 1267.89 706.191C1267.89 708.103 1266.33 709.659 1264.42 709.659Z" fill="#979797"/>
<path d="M1085.08 708.612H1081.88V717.485H1080.57V708.612H1077.38V707.532H1085.08V708.612ZM1089.41 711.224C1089.22 711.192 1089.01 711.176 1088.79 711.176C1087.96 711.176 1087.4 711.529 1087.1 712.235V717.485H1085.84V710.089H1087.07L1087.09 710.943C1087.5 710.283 1088.09 709.952 1088.85 709.952C1089.1 709.952 1089.28 709.984 1089.41 710.048V711.224ZM1091.95 717.485H1090.69V710.089H1091.95V717.485ZM1090.59 708.127C1090.59 707.922 1090.65 707.749 1090.77 707.607C1090.9 707.466 1091.09 707.396 1091.33 707.396C1091.58 707.396 1091.76 707.466 1091.89 707.607C1092.02 707.749 1092.08 707.922 1092.08 708.127C1092.08 708.332 1092.02 708.503 1091.89 708.64C1091.76 708.776 1091.58 708.845 1091.33 708.845C1091.09 708.845 1090.9 708.776 1090.77 708.64C1090.65 708.503 1090.59 708.332 1090.59 708.127ZM1100.23 713.869C1100.23 714.995 1099.97 715.902 1099.46 716.59C1098.94 717.278 1098.25 717.622 1097.37 717.622C1096.47 717.622 1095.76 717.337 1095.25 716.768V720.329H1093.98V710.089H1095.14L1095.2 710.909C1095.72 710.271 1096.43 709.952 1097.35 709.952C1098.24 709.952 1098.94 710.287 1099.45 710.957C1099.97 711.627 1100.23 712.559 1100.23 713.753V713.869ZM1098.97 713.726C1098.97 712.892 1098.79 712.233 1098.43 711.75C1098.08 711.267 1097.59 711.025 1096.97 711.025C1096.21 711.025 1095.63 711.365 1095.25 712.044V715.578C1095.63 716.253 1096.21 716.59 1096.98 716.59C1097.59 716.59 1098.07 716.351 1098.43 715.872C1098.79 715.389 1098.97 714.674 1098.97 713.726ZM1082.31 731.523C1082.31 731.182 1082.18 730.917 1081.92 730.73C1081.66 730.539 1081.21 730.375 1080.57 730.238C1079.93 730.102 1079.43 729.938 1079.05 729.746C1078.67 729.555 1078.4 729.327 1078.21 729.062C1078.04 728.798 1077.95 728.484 1077.95 728.119C1077.95 727.513 1078.2 727 1078.71 726.581C1079.23 726.162 1079.88 725.952 1080.68 725.952C1081.52 725.952 1082.2 726.169 1082.72 726.602C1083.24 727.035 1083.5 727.588 1083.5 728.263H1082.23C1082.23 727.916 1082.08 727.618 1081.79 727.367C1081.5 727.117 1081.13 726.991 1080.68 726.991C1080.22 726.991 1079.86 727.091 1079.6 727.292C1079.34 727.493 1079.21 727.755 1079.21 728.078C1079.21 728.383 1079.33 728.614 1079.57 728.769C1079.82 728.924 1080.25 729.072 1080.88 729.213C1081.51 729.354 1082.03 729.523 1082.42 729.719C1082.81 729.915 1083.1 730.152 1083.29 730.43C1083.48 730.703 1083.57 731.038 1083.57 731.435C1083.57 732.095 1083.31 732.626 1082.78 733.027C1082.25 733.424 1081.57 733.622 1080.72 733.622C1080.13 733.622 1079.61 733.517 1079.15 733.308C1078.69 733.098 1078.34 732.806 1078.08 732.433C1077.82 732.054 1077.69 731.646 1077.69 731.209H1078.96C1078.98 731.633 1079.15 731.97 1079.46 732.221C1079.78 732.467 1080.2 732.59 1080.72 732.59C1081.2 732.59 1081.58 732.494 1081.87 732.303C1082.16 732.107 1082.31 731.847 1082.31 731.523Z" fill="#979797"/>
<path d="M1066.98 702.773H1064.06V699.344H1064.67C1064.88 699.344 1065.04 699.179 1065.04 698.975C1065.04 698.771 1064.88 698.606 1064.67 698.606H1057.23C1057.03 698.606 1056.86 698.771 1056.86 698.975C1056.86 699.179 1057.03 699.344 1057.23 699.344H1057.85V702.773H1054.92C1053.97 702.773 1053.2 703.547 1053.2 704.498V720.488C1053.2 721.355 1053.84 722.074 1054.68 722.195V722.696C1054.68 723.306 1055.17 723.803 1055.78 723.803C1056.4 723.803 1056.89 723.306 1056.89 722.696V722.213H1065.01V722.696C1065.01 723.306 1065.51 723.803 1066.12 723.803C1066.73 723.803 1067.23 723.306 1067.23 722.696V722.195C1068.06 722.074 1068.71 721.355 1068.71 720.488V707.308C1068.71 707.104 1068.54 706.938 1068.34 706.938C1068.13 706.938 1067.97 707.104 1067.97 707.308V720.488C1067.97 721.032 1067.52 721.474 1066.98 721.474H1054.92C1054.38 721.474 1053.94 721.032 1053.94 720.488V704.498C1053.94 703.954 1054.38 703.512 1054.92 703.512H1066.98C1067.52 703.512 1067.97 703.954 1067.97 704.498V705.58C1067.97 705.784 1068.13 705.949 1068.34 705.949C1068.54 705.949 1068.71 705.784 1068.71 705.58V704.498C1068.71 703.547 1067.93 702.773 1066.98 702.773ZM1066.49 722.213V722.696C1066.49 722.899 1066.32 723.065 1066.12 723.065C1065.92 723.065 1065.75 722.899 1065.75 722.696V722.213H1066.49ZM1056.15 722.213V722.696C1056.15 722.899 1055.99 723.065 1055.78 723.065C1055.58 723.065 1055.42 722.899 1055.42 722.696V722.213H1056.15ZM1058.58 699.344H1063.32V702.773H1058.58V699.344Z" fill="#979797"/>
<path d="M1058.21 720.736H1066.86C1067.06 720.736 1067.23 720.571 1067.23 720.367V712.148C1067.23 711.945 1067.06 711.779 1066.86 711.779H1055.05C1054.84 711.779 1054.68 711.945 1054.68 712.148V720.367C1054.68 720.571 1054.84 720.736 1055.05 720.736H1056.52C1056.73 720.736 1056.89 720.571 1056.89 720.367C1056.89 720.163 1056.73 719.998 1056.52 719.998H1055.42V712.517H1066.49V719.998H1058.21C1058.01 719.998 1057.84 720.163 1057.84 720.367C1057.84 720.571 1058.01 720.736 1058.21 720.736V720.736Z" fill="#979797"/>
<path d="M1064.2 715.544C1064.41 715.544 1064.57 715.379 1064.57 715.175V713.976H1065.38C1065.59 713.976 1065.75 713.811 1065.75 713.607C1065.75 713.403 1065.59 713.238 1065.38 713.238H1056.52C1056.32 713.238 1056.15 713.403 1056.15 713.607C1056.15 713.811 1056.32 713.976 1056.52 713.976H1063.83V715.175C1063.83 715.379 1064 715.544 1064.2 715.544Z" fill="#979797"/>
<path d="M1063.41 708.676C1063.62 708.676 1063.78 708.51 1063.78 708.306V706.83C1063.78 706.626 1063.62 706.461 1063.41 706.461H1058.49C1058.29 706.461 1058.12 706.626 1058.12 706.83V708.306C1058.12 708.51 1058.29 708.676 1058.49 708.676H1063.41ZM1058.86 707.199H1063.04V707.937H1058.86V707.199Z" fill="#979797"/>
<path fill-rule="evenodd" clip-rule="evenodd" d="M1047.66 109.34L1046.48 108.155L1041.44 113.195L1046.48 118.234L1047.66 117.05L1043.82 113.195L1047.66 109.34Z" fill="#979797"/>
<path d="M1295.99 118.315V109.784H1298.51C1299.26 109.784 1299.93 109.952 1300.51 110.288C1301.1 110.624 1301.55 111.1 1301.87 111.718C1302.19 112.335 1302.35 113.042 1302.35 113.839V114.266C1302.35 115.075 1302.19 115.786 1301.86 116.399C1301.54 117.012 1301.08 117.485 1300.49 117.817C1299.89 118.149 1299.21 118.315 1298.44 118.315H1295.99ZM1297.47 110.979V117.132H1298.44C1299.21 117.132 1299.81 116.889 1300.22 116.405C1300.64 115.917 1300.85 115.218 1300.86 114.307V113.833C1300.86 112.907 1300.66 112.2 1300.26 111.712C1299.86 111.223 1299.27 110.979 1298.51 110.979H1297.47ZM1306.48 118.432C1305.58 118.432 1304.85 118.149 1304.28 117.583C1303.73 117.012 1303.45 116.255 1303.45 115.309V115.134C1303.45 114.501 1303.57 113.936 1303.81 113.44C1304.06 112.94 1304.4 112.552 1304.84 112.274C1305.28 111.997 1305.77 111.858 1306.32 111.858C1307.18 111.858 1307.85 112.134 1308.32 112.684C1308.79 113.235 1309.02 114.014 1309.02 115.022V115.596H1304.88C1304.92 116.12 1305.1 116.534 1305.4 116.839C1305.71 117.143 1306.1 117.296 1306.56 117.296C1307.22 117.296 1307.75 117.032 1308.16 116.505L1308.92 117.237C1308.67 117.616 1308.33 117.911 1307.91 118.122C1307.48 118.329 1307.01 118.432 1306.48 118.432ZM1306.31 113.001C1305.92 113.001 1305.6 113.137 1305.36 113.411C1305.12 113.684 1304.97 114.065 1304.91 114.553H1307.62V114.448C1307.59 113.971 1307.46 113.612 1307.24 113.37C1307.01 113.124 1306.71 113.001 1306.31 113.001ZM1311.92 110.434V111.975H1313.04V113.03H1311.92V116.569C1311.92 116.811 1311.97 116.987 1312.06 117.096C1312.16 117.202 1312.33 117.255 1312.58 117.255C1312.74 117.255 1312.91 117.235 1313.07 117.196V118.298C1312.75 118.387 1312.44 118.432 1312.14 118.432C1311.04 118.432 1310.5 117.829 1310.5 116.622V113.03H1309.45V111.975H1310.5V110.434H1311.92ZM1317.92 118.315C1317.86 118.194 1317.8 117.997 1317.75 117.723C1317.3 118.196 1316.75 118.432 1316.09 118.432C1315.45 118.432 1314.93 118.251 1314.53 117.887C1314.13 117.524 1313.93 117.075 1313.93 116.54C1313.93 115.864 1314.18 115.346 1314.68 114.987C1315.18 114.624 1315.9 114.442 1316.83 114.442H1317.71V114.026C1317.71 113.698 1317.62 113.436 1317.43 113.241C1317.25 113.042 1316.97 112.942 1316.59 112.942C1316.27 112.942 1316 113.024 1315.8 113.188C1315.59 113.348 1315.49 113.553 1315.49 113.803H1314.06C1314.06 113.456 1314.18 113.132 1314.41 112.831C1314.64 112.526 1314.95 112.288 1315.35 112.116C1315.75 111.944 1316.19 111.858 1316.68 111.858C1317.42 111.858 1318.01 112.046 1318.45 112.421C1318.89 112.792 1319.12 113.315 1319.13 113.991V116.85C1319.13 117.421 1319.21 117.876 1319.37 118.216V118.315H1317.92ZM1316.35 117.29C1316.64 117.29 1316.9 117.221 1317.15 117.085C1317.4 116.948 1317.58 116.764 1317.71 116.534V115.339H1316.94C1316.41 115.339 1316.02 115.43 1315.75 115.614C1315.49 115.798 1315.35 116.057 1315.35 116.393C1315.35 116.667 1315.44 116.885 1315.62 117.05C1315.81 117.21 1316.05 117.29 1316.35 117.29ZM1322.14 118.315H1320.71V111.975H1322.14V118.315ZM1320.63 110.329C1320.63 110.11 1320.69 109.928 1320.83 109.784C1320.97 109.639 1321.17 109.567 1321.43 109.567C1321.69 109.567 1321.89 109.639 1322.03 109.784C1322.17 109.928 1322.24 110.11 1322.24 110.329C1322.24 110.544 1322.17 110.723 1322.03 110.868C1321.89 111.009 1321.69 111.079 1321.43 111.079C1321.17 111.079 1320.97 111.009 1320.83 110.868C1320.69 110.723 1320.63 110.544 1320.63 110.329ZM1325.21 118.315H1323.78V109.315H1325.21V118.315ZM1330.32 116.593C1330.32 116.339 1330.21 116.145 1330 116.012C1329.79 115.88 1329.45 115.762 1328.96 115.661C1328.48 115.559 1328.08 115.43 1327.75 115.274C1327.04 114.93 1326.68 114.432 1326.68 113.78C1326.68 113.233 1326.92 112.776 1327.38 112.409C1327.84 112.042 1328.42 111.858 1329.13 111.858C1329.89 111.858 1330.5 112.046 1330.97 112.421C1331.44 112.796 1331.67 113.282 1331.67 113.88H1330.25C1330.25 113.606 1330.15 113.38 1329.94 113.2C1329.74 113.016 1329.47 112.925 1329.13 112.925C1328.82 112.925 1328.57 112.997 1328.37 113.141C1328.17 113.286 1328.07 113.479 1328.07 113.721C1328.07 113.94 1328.17 114.11 1328.35 114.231C1328.53 114.352 1328.9 114.475 1329.46 114.6C1330.02 114.721 1330.46 114.868 1330.77 115.04C1331.09 115.208 1331.33 115.411 1331.48 115.649C1331.64 115.887 1331.72 116.177 1331.72 116.516C1331.72 117.087 1331.48 117.55 1331.01 117.905C1330.54 118.257 1329.92 118.432 1329.15 118.432C1328.63 118.432 1328.17 118.339 1327.76 118.151C1327.36 117.964 1327.04 117.706 1326.81 117.378C1326.59 117.05 1326.47 116.696 1326.47 116.317H1327.86C1327.88 116.653 1328 116.913 1328.24 117.096C1328.47 117.276 1328.78 117.366 1329.17 117.366C1329.54 117.366 1329.83 117.296 1330.02 117.155C1330.22 117.01 1330.32 116.823 1330.32 116.593Z" fill="#979797"/>
<rect x="1071.68" y="156.869" width="223.44" height="30.2365" fill="#C4C4C4"/>
<rect x="1071.68" y="249.259" width="223.44" height="30.2365" fill="#C4C4C4"/>
<rect x="1071.68" y="341.648" width="223.44" height="30.2365" fill="#C4C4C4"/>
<rect x="1071.68" y="200.544" width="223.44" height="15.1182" fill="#C4C4C4"/>
<rect x="1071.68" y="292.934" width="223.44" height="15.1182" fill="#C4C4C4"/>
<rect x="1071.68" y="385.323" width="223.44" height="15.1182" fill="#C4C4C4"/>
<line x1="1050.84" y1="168.628" x2="1050.84" y2="258.498" stroke="#32DF77" stroke-width="2"/>
<line x1="1050.84" y1="258.498" x2="1050.84" y2="348.367" stroke="#979797" stroke-width="2"/>
<ellipse cx="1050.68" cy="167.788" rx="5.88" ry="5.87931" fill="#32DF77"/>
<ellipse cx="1050.68" cy="258.497" rx="5.88" ry="5.87931" fill="#AAB0BB"/>
<ellipse cx="1050.68" cy="348.367" rx="5.88" ry="5.87932" fill="#AAB0BB"/>
<rect x="1028" y="67" width="315" height="682" fill="#010101" fill-opacity="0.22"/>
<path d="M1028 489.313C1028 478.267 1036.95 469.313 1048 469.313H1323C1334.05 469.313 1343 478.267 1343 489.313V749H1028V489.313Z" fill="white"/>
<path d="M1049.84 511.948C1049.84 509.739 1051.63 507.948 1053.84 507.948H1154.2C1156.41 507.948 1158.2 509.739 1158.2 511.948V546.783C1158.2 548.992 1156.41 550.783 1154.2 550.783H1053.84C1051.63 550.783 1049.84 548.992 1049.84 546.783V511.948Z" fill="#D5D5D6"/>
<path d="M1049.84 578.699C1049.84 580.909 1051.63 582.699 1053.84 582.699H1312.96C1315.17 582.699 1316.96 580.909 1316.96 578.699V572.421C1316.96 570.212 1315.17 568.421 1312.96 568.421H1053.84C1051.63 568.421 1049.84 570.212 1049.84 572.421V578.699Z" fill="#E5E5E5"/>
<path d="M1049.84 603.896C1049.84 606.106 1051.63 607.896 1053.84 607.896H1134.04C1136.25 607.896 1138.04 606.106 1138.04 603.896V597.618C1138.04 595.409 1136.25 593.618 1134.04 593.618H1053.84C1051.63 593.618 1049.84 595.409 1049.84 597.618V603.896Z" fill="#E5E5E5"/>
<path d="M1049.84 626.574C1049.84 628.783 1051.63 630.574 1053.84 630.574H1134.04C1136.25 630.574 1138.04 628.783 1138.04 626.574V620.295C1138.04 618.086 1136.25 616.295 1134.04 616.295H1053.84C1051.63 616.295 1049.84 618.086 1049.84 620.295V626.574Z" fill="#E5E5E5"/>
<path d="M1208.6 511.948C1208.6 509.739 1210.39 507.948 1212.6 507.948H1312.96C1315.17 507.948 1316.96 509.739 1316.96 511.948V546.783C1316.96 548.992 1315.17 550.783 1312.96 550.783H1212.6C1210.39 550.783 1208.6 548.992 1208.6 546.783V511.948Z" fill="#D5D5D6"/>
<path d="M1181.72 538.185L1183.4 538.185L1187.6 531.465L1192.22 531.465C1192.92 531.465 1193.48 530.903 1193.48 530.206C1193.48 529.509 1192.92 528.946 1192.22 528.946L1187.6 528.946L1183.4 522.227L1181.72 522.227L1183.82 528.946L1179.2 528.946L1177.94 527.266L1176.68 527.266L1177.52 530.206L1176.68 533.145L1177.94 533.145L1179.2 531.465L1183.82 531.465L1181.72 538.185Z" fill="#1E1E1E"/>
<rect x="1047.32" y="670.889" width="264.6" height="41.9951" rx="6" fill="#C4C4C4"/>
<rect x="1072" y="100" width="166" height="28" rx="6" fill="#C4C4C4"/>
</g>
<g filter="url(#filter2_d)">
<rect width="315" height="682" transform="translate(562 67)" fill="white"/>
<rect x="562" y="93.0369" width="315" height="40.3153" fill="white"/>
<path fill-rule="evenodd" clip-rule="evenodd" d="M581.664 109.34L580.48 108.155L575.44 113.195L580.48 118.234L581.664 117.05L577.817 113.195L581.664 109.34Z" fill="#979797"/>
<path d="M819.987 118.315V109.784H822.507C823.261 109.784 823.929 109.952 824.511 110.288C825.097 110.624 825.55 111.101 825.87 111.718C826.19 112.335 826.351 113.042 826.351 113.839V114.267C826.351 115.075 826.188 115.786 825.864 116.399C825.544 117.013 825.085 117.485 824.487 117.817C823.894 118.149 823.212 118.315 822.442 118.315H819.987ZM821.47 110.979V117.132H822.437C823.214 117.132 823.81 116.89 824.224 116.405C824.642 115.917 824.854 115.218 824.862 114.308V113.833C824.862 112.907 824.661 112.2 824.259 111.712C823.856 111.224 823.272 110.979 822.507 110.979H821.47ZM830.481 118.433C829.579 118.433 828.847 118.149 828.284 117.583C827.726 117.013 827.446 116.255 827.446 115.31V115.134C827.446 114.501 827.567 113.937 827.81 113.44C828.056 112.94 828.399 112.552 828.841 112.274C829.282 111.997 829.774 111.858 830.317 111.858C831.181 111.858 831.847 112.134 832.315 112.685C832.788 113.235 833.024 114.015 833.024 115.022V115.597H828.882C828.925 116.12 829.099 116.534 829.403 116.839C829.712 117.144 830.099 117.296 830.563 117.296C831.216 117.296 831.747 117.032 832.157 116.505L832.925 117.237C832.671 117.616 832.331 117.911 831.905 118.122C831.483 118.329 831.009 118.433 830.481 118.433ZM830.312 113.001C829.921 113.001 829.604 113.138 829.362 113.411C829.124 113.685 828.972 114.065 828.905 114.554H831.618V114.448C831.587 113.972 831.46 113.612 831.237 113.37C831.015 113.124 830.706 113.001 830.312 113.001ZM835.919 110.435V111.976H837.038V113.03H835.919V116.569C835.919 116.812 835.966 116.987 836.06 117.097C836.157 117.202 836.329 117.255 836.575 117.255C836.739 117.255 836.905 117.235 837.073 117.196V118.298C836.749 118.388 836.437 118.433 836.136 118.433C835.042 118.433 834.495 117.829 834.495 116.622V113.03H833.452V111.976H834.495V110.435H835.919ZM841.919 118.315C841.856 118.194 841.802 117.997 841.755 117.724C841.302 118.196 840.747 118.433 840.091 118.433C839.454 118.433 838.935 118.251 838.532 117.888C838.13 117.524 837.929 117.075 837.929 116.54C837.929 115.864 838.179 115.347 838.679 114.987C839.183 114.624 839.901 114.442 840.835 114.442H841.708V114.026C841.708 113.698 841.616 113.437 841.433 113.241C841.249 113.042 840.97 112.942 840.595 112.942C840.271 112.942 840.005 113.024 839.798 113.188C839.591 113.349 839.487 113.554 839.487 113.804H838.063C838.063 113.456 838.179 113.132 838.409 112.831C838.64 112.526 838.952 112.288 839.347 112.116C839.745 111.944 840.188 111.858 840.677 111.858C841.419 111.858 842.011 112.046 842.452 112.421C842.894 112.792 843.12 113.315 843.132 113.991V116.851C843.132 117.421 843.212 117.876 843.372 118.216V118.315H841.919ZM840.354 117.29C840.636 117.29 840.899 117.222 841.146 117.085C841.396 116.948 841.583 116.765 841.708 116.534V115.339H840.94C840.413 115.339 840.017 115.431 839.751 115.614C839.485 115.798 839.353 116.058 839.353 116.394C839.353 116.667 839.442 116.886 839.622 117.05C839.806 117.21 840.05 117.29 840.354 117.29ZM846.138 118.315H844.714V111.976H846.138V118.315ZM844.626 110.329C844.626 110.11 844.694 109.929 844.831 109.784C844.972 109.64 845.171 109.567 845.429 109.567C845.687 109.567 845.886 109.64 846.026 109.784C846.167 109.929 846.237 110.11 846.237 110.329C846.237 110.544 846.167 110.724 846.026 110.868C845.886 111.009 845.687 111.079 845.429 111.079C845.171 111.079 844.972 111.009 844.831 110.868C844.694 110.724 844.626 110.544 844.626 110.329ZM849.208 118.315H847.784V109.315H849.208V118.315ZM854.317 116.593C854.317 116.339 854.212 116.146 854.001 116.013C853.794 115.88 853.448 115.763 852.964 115.661C852.479 115.56 852.075 115.431 851.751 115.274C851.04 114.931 850.685 114.433 850.685 113.78C850.685 113.233 850.915 112.776 851.376 112.409C851.837 112.042 852.423 111.858 853.134 111.858C853.892 111.858 854.503 112.046 854.968 112.421C855.437 112.796 855.671 113.282 855.671 113.88H854.247C854.247 113.606 854.146 113.38 853.942 113.2C853.739 113.017 853.47 112.925 853.134 112.925C852.821 112.925 852.565 112.997 852.366 113.142C852.171 113.286 852.073 113.479 852.073 113.722C852.073 113.94 852.165 114.11 852.349 114.231C852.532 114.353 852.903 114.476 853.462 114.601C854.021 114.722 854.458 114.868 854.774 115.04C855.095 115.208 855.331 115.411 855.483 115.649C855.64 115.888 855.718 116.177 855.718 116.517C855.718 117.087 855.481 117.55 855.009 117.905C854.536 118.257 853.917 118.433 853.151 118.433C852.632 118.433 852.169 118.339 851.763 118.151C851.356 117.964 851.04 117.706 850.813 117.378C850.587 117.05 850.474 116.696 850.474 116.317H851.856C851.876 116.653 852.003 116.913 852.237 117.097C852.472 117.276 852.782 117.366 853.169 117.366C853.544 117.366 853.829 117.296 854.024 117.155C854.22 117.011 854.317 116.823 854.317 116.593Z" fill="#979797"/>
<rect x="605.68" y="156.869" width="223.44" height="30.2365" fill="#AAB0BB"/>
<rect x="605.68" y="249.259" width="223.44" height="30.2365" fill="#AAB0BB"/>
<rect x="605.68" y="341.648" width="223.44" height="30.2365" fill="#AAB0BB"/>
<rect x="605.68" y="200.544" width="223.44" height="15.1182" fill="#CAD0DC"/>
<rect x="605.68" y="292.934" width="223.44" height="15.1182" fill="#CAD0DC"/>
<rect x="605.68" y="385.323" width="223.44" height="15.1182" fill="#CAD0DC"/>
<line x1="584.84" y1="168.628" x2="584.84" y2="258.498" stroke="#32DF77" stroke-width="2"/>
<line x1="584.84" y1="258.498" x2="584.84" y2="348.367" stroke="#979797" stroke-width="2"/>
<ellipse cx="584.68" cy="167.788" rx="5.88" ry="5.87931" fill="#32DF77"/>
<ellipse cx="584.68" cy="258.497" rx="5.88" ry="5.87931" fill="#AAB0BB"/>
<ellipse cx="584.68" cy="348.367" rx="5.88" ry="5.87932" fill="#AAB0BB"/>
<rect x="605" y="100" width="166" height="28" rx="6" fill="#C4C4C4"/>
</g>
<defs>
<filter id="filter0_d" x="71" y="47" width="365" height="732" filterUnits="userSpaceOnUse" color-interpolation-filters="sRGB">
<feFlood flood-opacity="0" result="BackgroundImageFix"/>
<feColorMatrix in="SourceAlpha" type="matrix" values="0 0 0 0 0 0 0 0 0 0 0 0 0 0 0 0 0 0 127 0"/>
<feOffset dy="5"/>
<feGaussianBlur stdDeviation="12.5"/>
<feColorMatrix type="matrix" values="0 0 0 0 0 0 0 0 0 0 0 0 0 0 0 0 0 0 0.11 0"/>
<feBlend mode="normal" in2="BackgroundImageFix" result="effect1_dropShadow"/>
<feBlend mode="normal" in="SourceGraphic" in2="effect1_dropShadow" result="shape"/>
</filter>
<filter id="filter1_d" x="1003" y="47" width="365" height="732" filterUnits="userSpaceOnUse" color-interpolation-filters="sRGB">
<feFlood flood-opacity="0" result="BackgroundImageFix"/>
<feColorMatrix in="SourceAlpha" type="matrix" values="0 0 0 0 0 0 0 0 0 0 0 0 0 0 0 0 0 0 127 0"/>
<feOffset dy="5"/>
<feGaussianBlur stdDeviation="12.5"/>
<feColorMatrix type="matrix" values="0 0 0 0 0 0 0 0 0 0 0 0 0 0 0 0 0 0 0.1 0"/>
<feBlend mode="normal" in2="BackgroundImageFix" result="effect1_dropShadow"/>
<feBlend mode="normal" in="SourceGraphic" in2="effect1_dropShadow" result="shape"/>
</filter>
<filter id="filter2_d" x="538" y="48" width="363" height="730" filterUnits="userSpaceOnUse" color-interpolation-filters="sRGB">
<feFlood flood-opacity="0" result="BackgroundImageFix"/>
<feColorMatrix in="SourceAlpha" type="matrix" values="0 0 0 0 0 0 0 0 0 0 0 0 0 0 0 0 0 0 127 0"/>
<feOffset dy="5"/>
<feGaussianBlur stdDeviation="12"/>
<feColorMatrix type="matrix" values="0 0 0 0 0 0 0 0 0 0 0 0 0 0 0 0 0 0 0.11 0"/>
<feBlend mode="normal" in2="BackgroundImageFix" result="effect1_dropShadow"/>
<feBlend mode="normal" in="SourceGraphic" in2="effect1_dropShadow" result="shape"/>
</filter>
</defs>
</svg>
